solid atmosphere
facet normal 2.9020344036645353e-15 -2.4291926434792666e-13 1
outer loop
vertex 0.06890738677978515 -0.05492255401611328 -0.63
vertex -0.06530612945556641 -0.05652593612670898 -0.63
vertex 0.059818058013916015 -0.058775161743164064 -0.63
endloop
endfacet
facet normal 7.614423855166214e-15 1.923060235359264e-14 1
outer loop
vertex 0.059818058013916015 -0.058775161743164064 -0.63
vertex -0.06530612945556641 -0.05652593612670898 -0.63
vertex -0.056127361297607425 -0.060160301208496095 -0.63
endloop
endfacet
facet normal 4.712389451501679e-15 2.621498667015193e-13 1
outer loop
vertex 0.059818058013916015 -0.058775161743164064 -0.63
vertex -0.056127361297607425 -0.060160301208496095 -0.63
vertex 0.05051459884643555 -0.06207728958129883 -0.63
endloop
endfacet
facet normal 0 0 1
outer loop
vertex 0.05051459884643555 -0.06207728958129883 -0.63
vertex -0.056127361297607425 -0.060160301208496095 -0.63
vertex -0.04674766921997071 -0.0632392349243164 -0.63
endloop
endfacet
facet normal 0 0 1
outer loop
vertex 0.05051459884643555 -0.06207728958129883 -0.63
vertex -0.04674766921997071 -0.0632392349243164 -0.63
vertex 0.04103030776977539 -0.06481712341308594 -0.63
endloop
endfacet
facet normal 0 0 1
outer loop
vertex 0.04103030776977539 -0.06481712341308594 -0.63
vertex -0.04674766921997071 -0.0632392349243164 -0.63
vertex -0.03720063400268555 -0.065751708984375 -0.63
endloop
endfacet
facet normal 0 0 1
outer loop
vertex 0.04103030776977539 -0.06481712341308594 -0.63
vertex -0.03720063400268555 -0.065751708984375 -0.63
vertex 0.031399141311645506 -0.06698485565185547 -0.63
endloop
endfacet
facet normal 0 0 1
outer loop
vertex 0.031399141311645506 -0.06698485565185547 -0.63
vertex -0.03720063400268555 -0.065751708984375 -0.63
vertex -0.027520429611206054 -0.06768873596191406 -0.63
endloop
endfacet
facet normal 0 0 1
outer loop
vertex 0.031399141311645506 -0.06698485565185547 -0.63
vertex -0.027520429611206054 -0.06768873596191406 -0.63
vertex 0.021655574798583984 -0.06857272338867187 -0.63
endloop
endfacet
facet normal 0 0 1
outer loop
vertex 0.021655574798583984 -0.06857272338867187 -0.63
vertex -0.027520429611206054 -0.06768873596191406 -0.63
vertex -0.017741708755493163 -0.06904338073730469 -0.63
endloop
endfacet
facet normal 0 0 1
outer loop
vertex 0.021655574798583984 -0.06857272338867187 -0.63
vertex -0.017741708755493163 -0.06904338073730469 -0.63
vertex 0.011834485054016113 -0.06957504272460938 -0.63
endloop
endfacet
facet normal 0 0 1
outer loop
vertex 0.011834485054016113 -0.06957504272460938 -0.63
vertex -0.017741708755493163 -0.06904338073730469 -0.63
vertex -0.007899477958679199 -0.06981079864501953 -0.63
endloop
endfacet
facet normal 0 0 1
outer loop
vertex 0.011834485054016113 -0.06957504272460938 -0.63
vertex -0.007899477958679199 -0.06981079864501953 -0.63
vertex 0.0019710314273834227 -0.06998822784423828 -0.63
endloop
endfacet
facet normal 0 0 1
outer loop
vertex -0.06530612945556641 -0.05652593612670898 -0.63
vertex 0.06890738677978515 -0.05492255401611328 -0.63
vertex -0.0742511215209961 -0.05234914779663086 -0.63
endloop
endfacet
facet normal 0 0 1
outer loop
vertex -0.0742511215209961 -0.05234914779663086 -0.63
vertex 0.06890738677978515 -0.05492255401611328 -0.63
vertex 0.07775003814697266 -0.05053326416015625 -0.63
endloop
endfacet
facet normal 0 0 1
outer loop
vertex -0.0742511215209961 -0.05234914779663086 -0.63
vertex 0.07775003814697266 -0.05053326416015625 -0.63
vertex -0.08293031311035157 -0.0476448860168457 -0.63
endloop
endfacet
facet normal 0 0 1
outer loop
vertex -0.08293031311035157 -0.0476448860168457 -0.63
vertex 0.07775003814697266 -0.05053326416015625 -0.63
vertex 0.08631436920166016 -0.04562300491333008 -0.63
endloop
endfacet
facet normal 0 0 1
outer loop
vertex -0.08293031311035157 -0.0476448860168457 -0.63
vertex 0.08631436920166016 -0.04562300491333008 -0.63
vertex -0.09131263732910157 -0.04242999267578125 -0.63
endloop
endfacet
facet normal 0 0 1
outer loop
vertex -0.09131263732910157 -0.04242999267578125 -0.63
vertex 0.08631436920166016 -0.04562300491333008 -0.63
vertex 0.09456971740722657 -0.0402093505859375 -0.63
endloop
endfacet
facet normal 0 0 1
outer loop
vertex -0.09131263732910157 -0.04242999267578125 -0.63
vertex 0.09456971740722657 -0.0402093505859375 -0.63
vertex -0.09936808013916015 -0.03672313690185547 -0.63
endloop
endfacet
facet normal 0 0 1
outer loop
vertex -0.09936808013916015 -0.03672313690185547 -0.63
vertex 0.09456971740722657 -0.0402093505859375 -0.63
vertex 0.10248653411865234 -0.03431167984008789 -0.63
endloop
endfacet
facet normal 0 0 1
outer loop
vertex -0.09936808013916015 -0.03672313690185547 -0.63
vertex 0.10248653411865234 -0.03431167984008789 -0.63
vertex -0.10706781768798829 -0.03054474449157715 -0.63
endloop
endfacet
facet normal 0 0 1
outer loop
vertex -0.10706781768798829 -0.03054474449157715 -0.63
vertex 0.10248653411865234 -0.03431167984008789 -0.63
vertex 0.11003646850585938 -0.027951108932495118 -0.63
endloop
endfacet
facet normal 0 0 1
outer loop
vertex -0.10706781768798829 -0.03054474449157715 -0.63
vertex 0.11003646850585938 -0.027951108932495118 -0.63
vertex -0.11438427734375001 -0.023916934967041018 -0.63
endloop
endfacet
facet normal 0 0 1
outer loop
vertex -0.11438427734375001 -0.023916934967041018 -0.63
vertex 0.11003646850585938 -0.027951108932495118 -0.63
vertex 0.1171925048828125 -0.02115040397644043 -0.63
endloop
endfacet
facet normal 0 0 1
outer loop
vertex -0.11438427734375001 -0.023916934967041018 -0.63
vertex 0.1171925048828125 -0.02115040397644043 -0.63
vertex -0.12129126739501954 -0.016863433837890626 -0.63
endloop
endfacet
facet normal 0 0 1
outer loop
vertex -0.12129126739501954 -0.016863433837890626 -0.63
vertex 0.1171925048828125 -0.02115040397644043 -0.63
vertex 0.12392902374267578 -0.013933910369873048 -0.63
endloop
endfacet
facet normal 0 0 1
outer loop
vertex -0.12129126739501954 -0.016863433837890626 -0.63
vertex 0.12392902374267578 -0.013933910369873048 -0.63
vertex -0.12776406860351563 -0.009409491539001466 -0.63
endloop
endfacet
facet normal 0 0 1
outer loop
vertex -0.12776406860351563 -0.009409491539001466 -0.63
vertex 0.12392902374267578 -0.013933910369873048 -0.63
vertex 0.13022190856933594 -0.006327462673187256 -0.63
endloop
endfacet
facet normal 0 0 1
outer loop
vertex -0.12776406860351563 -0.009409491539001466 -0.63
vertex 0.13022190856933594 -0.006327462673187256 -0.63
vertex -0.13377951049804687 -0.0015817897319793702 -0.63
endloop
endfacet
facet normal 0 0 1
outer loop
vertex -0.13377951049804687 -0.0015817897319793702 -0.63
vertex 0.13022190856933594 -0.006327462673187256 -0.63
vertex 0.1360486297607422 0.001641711473464966 -0.63
endloop
endfacet
facet normal 0 0 1
outer loop
vertex -0.13377951049804687 -0.0015817897319793702 -0.63
vertex 0.1360486297607422 0.001641711473464966 -0.63
vertex -0.0006379010677337646 0.030003129959106447 -0.63
endloop
endfacet
facet normal 0 0 1
outer loop
vertex -0.0006379010677337646 0.030003129959106447 -0.63
vertex 0.1360486297607422 0.001641711473464966 -0.63
vertex 0.14138833618164062 0.009945083618164062 -0.63
endloop
endfacet
facet normal 0 0 1
outer loop
vertex -0.0006379010677337646 0.030003129959106447 -0.63
vertex 0.14138833618164062 0.009945083618164062 -0.63
vertex 0.14622190856933595 0.01855293083190918 -0.63
endloop
endfacet
facet normal 0 0 1
outer loop
vertex 0.14622190856933595 0.01855293083190918 -0.63
vertex 0.15053204345703125 0.027434438705444337 -0.63
vertex -0.0006379010677337646 0.030003129959106447 -0.63
endloop
endfacet
facet normal 0 0 1
outer loop
vertex -0.0006379010677337646 0.030003129959106447 -0.63
vertex 0.15053204345703125 0.027434438705444337 -0.63
vertex 0.0055433325767517095 0.030236804962158203 -0.63
endloop
endfacet
facet normal 0 0 1
outer loop
vertex 0.0055433325767517095 0.030236804962158203 -0.63
vertex 0.15053204345703125 0.027434438705444337 -0.63
vertex 0.011674365043640137 0.031056983947753906 -0.63
endloop
endfacet
facet normal 0 0 1
outer loop
vertex 0.011674365043640137 0.031056983947753906 -0.63
vertex 0.15053204345703125 0.027434438705444337 -0.63
vertex 0.01769967269897461 0.03245624160766602 -0.63
endloop
endfacet
facet normal 0 0 1
outer loop
vertex 0.01769967269897461 0.03245624160766602 -0.63
vertex 0.15053204345703125 0.027434438705444337 -0.63
vertex 0.02356468963623047 0.03442190551757813 -0.63
endloop
endfacet
facet normal 0 0 1
outer loop
vertex 0.02356468963623047 0.03442190551757813 -0.63
vertex 0.15053204345703125 0.027434438705444337 -0.63
vertex 0.02921630096435547 0.03693617630004883 -0.63
endloop
endfacet
facet normal 0 0 1
outer loop
vertex 0.02921630096435547 0.03693617630004883 -0.63
vertex 0.15053204345703125 0.027434438705444337 -0.63
vertex 0.03460332489013672 0.03997628021240234 -0.63
endloop
endfacet
facet normal 0 0 1
outer loop
vertex 0.03460332489013672 0.03997628021240234 -0.63
vertex 0.15053204345703125 0.027434438705444337 -0.63
vertex 0.03967697525024414 0.043514686584472655 -0.63
endloop
endfacet
facet normal 0 0 1
outer loop
vertex 0.03967697525024414 0.043514686584472655 -0.63
vertex 0.15053204345703125 0.027434438705444337 -0.63
vertex 0.044391304016113284 0.04751935195922852 -0.63
endloop
endfacet
facet normal 0 0 1
outer loop
vertex 0.044391304016113284 0.04751935195922852 -0.63
vertex 0.15053204345703125 0.027434438705444337 -0.63
vertex 0.048703620910644535 0.05195401000976563 -0.63
endloop
endfacet
facet normal 0 0 1
outer loop
vertex 0.048703620910644535 0.05195401000976563 -0.63
vertex 0.15053204345703125 0.027434438705444337 -0.63
vertex 0.052574867248535155 0.056778499603271484 -0.63
endloop
endfacet
facet normal 0 0 1
outer loop
vertex 0.052574867248535155 0.056778499603271484 -0.63
vertex 0.15053204345703125 0.027434438705444337 -0.63
vertex 0.05596998977661133 0.06194912719726563 -0.63
endloop
endfacet
facet normal 0 0 1
outer loop
vertex 0.05596998977661133 0.06194912719726563 -0.63
vertex 0.15053204345703125 0.027434438705444337 -0.63
vertex 0.05885823822021485 0.0674190673828125 -0.63
endloop
endfacet
facet normal 0 0 1
outer loop
vertex 0.05885823822021485 0.0674190673828125 -0.63
vertex 0.15053204345703125 0.027434438705444337 -0.63
vertex 0.15430331420898438 0.03655781173706055 -0.63
endloop
endfacet
facet normal 0 0 1
outer loop
vertex 0.05885823822021485 0.0674190673828125 -0.63
vertex 0.15430331420898438 0.03655781173706055 -0.63
vertex 0.06121345901489258 0.07313878631591797 -0.63
endloop
endfacet
facet normal 0 0 1
outer loop
vertex 0.06121345901489258 0.07313878631591797 -0.63
vertex 0.15430331420898438 0.03655781173706055 -0.63
vertex 0.157522216796875 0.04589039611816406 -0.63
endloop
endfacet
facet normal 0 0 1
outer loop
vertex 0.06121345901489258 0.07313878631591797 -0.63
vertex 0.157522216796875 0.04589039611816406 -0.63
vertex 0.06301432037353516 0.07905648803710938 -0.63
endloop
endfacet
facet normal 0 0 1
outer loop
vertex 0.06301432037353516 0.07905648803710938 -0.63
vertex 0.157522216796875 0.04589039611816406 -0.63
vertex 0.16017723083496094 0.05539877700805664 -0.63
endloop
endfacet
facet normal 0 0 1
outer loop
vertex 0.06301432037353516 0.07905648803710938 -0.63
vertex 0.16017723083496094 0.05539877700805664 -0.63
vertex 0.16225885009765625 0.06504891967773438 -0.63
endloop
endfacet
facet normal 0 0 1
outer loop
vertex 0.06301432037353516 0.07905648803710938 -0.63
vertex 0.16225885009765625 0.06504891967773438 -0.63
vertex 0.06424451446533204 0.08511857604980469 -0.63
endloop
endfacet
facet normal 0 0 1
outer loop
vertex 0.06424451446533204 0.08511857604980469 -0.63
vertex 0.16225885009765625 0.06504891967773438 -0.63
vertex 0.16375962829589844 0.07480628204345703 -0.63
endloop
endfacet
facet normal 0 0 1
outer loop
vertex 0.06424451446533204 0.08511857604980469 -0.63
vertex 0.16375962829589844 0.07480628204345703 -0.63
vertex 0.06489289855957031 0.09127014923095704 -0.63
endloop
endfacet
facet normal 0 0 1
outer loop
vertex 0.06489289855957031 0.09127014923095704 -0.63
vertex 0.16375962829589844 0.07480628204345703 -0.63
vertex 0.16467417907714843 0.08463593292236328 -0.63
endloop
endfacet
facet normal 0 0 1
outer loop
vertex 0.06489289855957031 0.09127014923095704 -0.63
vertex 0.16467417907714843 0.08463593292236328 -0.63
vertex 0.16499925231933593 0.094502685546875 -0.63
endloop
endfacet
facet normal 0 0 1
outer loop
vertex 0.06489289855957031 0.09127014923095704 -0.63
vertex 0.16499925231933593 0.094502685546875 -0.63
vertex 0.06495360565185547 0.09745549774169922 -0.63
endloop
endfacet
facet normal 0 0 1
outer loop
vertex 0.06495360565185547 0.09745549774169922 -0.63
vertex 0.16499925231933593 0.094502685546875 -0.63
vertex 0.16473365783691407 0.1043712158203125 -0.63
endloop
endfacet
facet normal 0 0 1
outer loop
vertex 0.06495360565185547 0.09745549774169922 -0.63
vertex 0.16473365783691407 0.1043712158203125 -0.63
vertex 0.06442607879638672 0.10361861419677734 -0.63
endloop
endfacet
facet normal 0 0 1
outer loop
vertex 0.06442607879638672 0.10361861419677734 -0.63
vertex 0.16473365783691407 0.1043712158203125 -0.63
vertex 0.16387837219238283 0.1142061996459961 -0.63
endloop
endfacet
facet normal 0 0 1
outer loop
vertex 0.06442607879638672 0.10361861419677734 -0.63
vertex 0.16387837219238283 0.1142061996459961 -0.63
vertex 0.16243644714355468 0.12397242736816406 -0.63
endloop
endfacet
facet normal 0 0 1
outer loop
vertex 0.06442607879638672 0.10361861419677734 -0.63
vertex 0.16243644714355468 0.12397242736816406 -0.63
vertex 0.06331510162353515 0.10970367431640625 -0.63
endloop
endfacet
facet normal 0 0 1
outer loop
vertex 0.06331510162353515 0.10970367431640625 -0.63
vertex 0.16243644714355468 0.12397242736816406 -0.63
vertex 0.16041302490234374 0.13363494873046874 -0.63
endloop
endfacet
facet normal 0 0 1
outer loop
vertex 0.06331510162353515 0.10970367431640625 -0.63
vertex 0.16041302490234374 0.13363494873046874 -0.63
vertex 0.1578153839111328 0.14315916442871093 -0.63
endloop
endfacet
facet normal 0 0 1
outer loop
vertex 0.06331510162353515 0.10970367431640625 -0.63
vertex 0.1578153839111328 0.14315916442871093 -0.63
vertex 0.061630733489990236 0.11565557861328125 -0.63
endloop
endfacet
facet normal 0 0 1
outer loop
vertex 0.061630733489990236 0.11565557861328125 -0.63
vertex 0.1578153839111328 0.14315916442871093 -0.63
vertex 0.1546528015136719 0.15251098632812501 -0.63
endloop
endfacet
facet normal 0 0 1
outer loop
vertex 0.061630733489990236 0.11565557861328125 -0.63
vertex 0.1546528015136719 0.15251098632812501 -0.63
vertex 0.05938822555541992 0.12142041778564454 -0.63
endloop
endfacet
facet normal 0 0 1
outer loop
vertex 0.05938822555541992 0.12142041778564454 -0.63
vertex 0.1546528015136719 0.15251098632812501 -0.63
vertex 0.15093659973144533 0.16165692138671875 -0.63
endloop
endfacet
facet normal 0 0 1
outer loop
vertex 0.05938822555541992 0.12142041778564454 -0.63
vertex 0.15093659973144533 0.16165692138671875 -0.63
vertex 0.05660789108276367 0.1269459991455078 -0.63
endloop
endfacet
facet normal 0 0 1
outer loop
vertex 0.05660789108276367 0.1269459991455078 -0.63
vertex 0.15093659973144533 0.16165692138671875 -0.63
vertex 0.05331490707397461 0.13218226623535156 -0.63
endloop
endfacet
facet normal 0 0 1
outer loop
vertex 0.05331490707397461 0.13218226623535156 -0.63
vertex 0.15093659973144533 0.16165692138671875 -0.63
vertex 0.049539093017578126 0.13708180236816406 -0.63
endloop
endfacet
facet normal 0 0 1
outer loop
vertex 0.049539093017578126 0.13708180236816406 -0.63
vertex 0.15093659973144533 0.16165692138671875 -0.63
vertex 0.045314647674560546 0.14160025024414064 -0.63
endloop
endfacet
facet normal 0 0 1
outer loop
vertex 0.045314647674560546 0.14160025024414064 -0.63
vertex 0.15093659973144533 0.16165692138671875 -0.63
vertex 0.04067982482910156 0.14569667053222657 -0.63
endloop
endfacet
facet normal 0 0 1
outer loop
vertex 0.04067982482910156 0.14569667053222657 -0.63
vertex 0.15093659973144533 0.16165692138671875 -0.63
vertex 0.03567659759521485 0.14933396911621094 -0.63
endloop
endfacet
facet normal 0 0 1
outer loop
vertex 0.03567659759521485 0.14933396911621094 -0.63
vertex 0.15093659973144533 0.16165692138671875 -0.63
vertex 0.030350278854370118 0.15247921752929688 -0.63
endloop
endfacet
facet normal 0 0 1
outer loop
vertex 0.030350278854370118 0.15247921752929688 -0.63
vertex 0.15093659973144533 0.16165692138671875 -0.63
vertex 0.024749103546142577 0.15510392761230468 -0.63
endloop
endfacet
facet normal 0 0 1
outer loop
vertex 0.024749103546142577 0.15510392761230468 -0.63
vertex 0.15093659973144533 0.16165692138671875 -0.63
vertex 0.018923795700073243 0.157184326171875 -0.63
endloop
endfacet
facet normal 0 0 1
outer loop
vertex 0.018923795700073243 0.157184326171875 -0.63
vertex 0.15093659973144533 0.16165692138671875 -0.63
vertex 0.012927111625671388 0.15870156860351564 -0.63
endloop
endfacet
facet normal 0 0 1
outer loop
vertex 0.012927111625671388 0.15870156860351564 -0.63
vertex 0.15093659973144533 0.16165692138671875 -0.63
vertex 0.006813357830047608 0.1596419219970703 -0.63
endloop
endfacet
facet normal 0 0 1
outer loop
vertex 0.006813357830047608 0.1596419219970703 -0.63
vertex 0.15093659973144533 0.16165692138671875 -0.63
vertex 0.0006379010677337646 0.1599968719482422 -0.63
endloop
endfacet
facet normal 0 0 1
outer loop
vertex 0.0006379010677337646 0.1599968719482422 -0.63
vertex 0.15093659973144533 0.16165692138671875 -0.63
vertex 0.14668006896972657 0.1705642547607422 -0.63
endloop
endfacet
facet normal 0 0 1
outer loop
vertex 0.0006379010677337646 0.1599968719482422 -0.63
vertex 0.14668006896972657 0.1705642547607422 -0.63
vertex 0.1418984832763672 0.17920108032226562 -0.63
endloop
endfacet
facet normal 0 0 1
outer loop
vertex 0.1418984832763672 0.17920108032226562 -0.63
vertex 0.13660893249511719 0.18753648376464843 -0.63
vertex 0.0006379010677337646 0.1599968719482422 -0.63
endloop
endfacet
facet normal 0 0 1
outer loop
vertex 0.0006379010677337646 0.1599968719482422 -0.63
vertex 0.13660893249511719 0.18753648376464843 -0.63
vertex 0.13083035278320312 0.19554063415527345 -0.63
endloop
endfacet
facet normal 0 0 1
outer loop
vertex 0.0006379010677337646 0.1599968719482422 -0.63
vertex 0.13083035278320312 0.19554063415527345 -0.63
vertex 0.12458342742919921 0.20318487548828126 -0.63
endloop
endfacet
facet normal 0 0 1
outer loop
vertex 0.12458342742919921 0.20318487548828126 -0.63
vertex 0.11789053344726563 0.2104418487548828 -0.63
vertex 0.0006379010677337646 0.1599968719482422 -0.63
endloop
endfacet
facet normal 0 0 1
outer loop
vertex 0.0006379010677337646 0.1599968719482422 -0.63
vertex 0.11789053344726563 0.2104418487548828 -0.63
vertex 0.11077562713623047 0.2172855682373047 -0.63
endloop
endfacet
facet normal 0 0 1
outer loop
vertex 0.0006379010677337646 0.1599968719482422 -0.63
vertex 0.11077562713623047 0.2172855682373047 -0.63
vertex 0.10326416778564454 0.22369154357910156 -0.63
endloop
endfacet
facet normal 0 0 1
outer loop
vertex 0.10326416778564454 0.22369154357910156 -0.63
vertex 0.09538304901123047 0.22963682556152346 -0.63
vertex 0.0006379010677337646 0.1599968719482422 -0.63
endloop
endfacet
facet normal 0 0 1
outer loop
vertex 0.0006379010677337646 0.1599968719482422 -0.63
vertex 0.09538304901123047 0.22963682556152346 -0.63
vertex 0.08716048431396485 0.2351001434326172 -0.63
endloop
endfacet
facet normal 0 0 1
outer loop
vertex 0.0006379010677337646 0.1599968719482422 -0.63
vertex 0.08716048431396485 0.2351001434326172 -0.63
vertex 0.07862590789794922 0.2400619354248047 -0.63
endloop
endfacet
facet normal 0 0 1
outer loop
vertex 0.07862590789794922 0.2400619354248047 -0.63
vertex 0.06980986785888672 0.24450445556640626 -0.63
vertex 0.0006379010677337646 0.1599968719482422 -0.63
endloop
endfacet
facet normal 0 0 1
outer loop
vertex 0.0006379010677337646 0.1599968719482422 -0.63
vertex 0.06980986785888672 0.24450445556640626 -0.63
vertex 0.060743934631347654 0.24841177368164064 -0.63
endloop
endfacet
facet normal 0 0 1
outer loop
vertex 0.0006379010677337646 0.1599968719482422 -0.63
vertex 0.060743934631347654 0.24841177368164064 -0.63
vertex 0.05146054840087891 0.2517699279785156 -0.63
endloop
endfacet
facet normal 0 0 1
outer loop
vertex 0.05146054840087891 0.2517699279785156 -0.63
vertex 0.04199294662475586 0.25456689453125003 -0.63
vertex 0.0006379010677337646 0.1599968719482422 -0.63
endloop
endfacet
facet normal 0 0 1
outer loop
vertex 0.0006379010677337646 0.1599968719482422 -0.63
vertex 0.04199294662475586 0.25456689453125003 -0.63
vertex 0.03237502288818359 0.25679263305664063 -0.63
endloop
endfacet
facet normal 0 0 1
outer loop
vertex 0.0006379010677337646 0.1599968719482422 -0.63
vertex 0.03237502288818359 0.25679263305664063 -0.63
vertex 0.022641202926635743 0.258439208984375 -0.63
endloop
endfacet
facet normal 0 0 1
outer loop
vertex 0.022641202926635743 0.258439208984375 -0.63
vertex 0.01282633399963379 0.25950070190429686 -0.63
vertex 0.0006379010677337646 0.1599968719482422 -0.63
endloop
endfacet
facet normal 0 0 1
outer loop
vertex 0.0006379010677337646 0.1599968719482422 -0.63
vertex 0.01282633399963379 0.25950070190429686 -0.63
vertex 0.002965550422668457 0.2599733581542969 -0.63
endloop
endfacet
facet normal 0 0 1
outer loop
vertex 0.0006379010677337646 0.1599968719482422 -0.63
vertex 0.002965550422668457 0.2599733581542969 -0.63
vertex -0.006905848979949951 0.2598554077148438 -0.63
endloop
endfacet
facet normal 0 0 1
outer loop
vertex 0.0006379010677337646 0.1599968719482422 -0.63
vertex -0.006905848979949951 0.2598554077148438 -0.63
vertex -0.0055433325767517095 0.15976319885253906 -0.63
endloop
endfacet
facet normal 0 0 1
outer loop
vertex -0.0055433325767517095 0.15976319885253906 -0.63
vertex -0.006905848979949951 0.2598554077148438 -0.63
vertex -0.016752527236938475 0.2591473388671875 -0.63
endloop
endfacet
facet normal 0 0 1
outer loop
vertex -0.0055433325767517095 0.15976319885253906 -0.63
vertex -0.016752527236938475 0.2591473388671875 -0.63
vertex -0.026539236068725585 0.2578516845703125 -0.63
endloop
endfacet
facet normal 0 0 1
outer loop
vertex -0.0055433325767517095 0.15976319885253906 -0.63
vertex -0.026539236068725585 0.2578516845703125 -0.63
vertex -0.011674365043640137 0.15894300842285156 -0.63
endloop
endfacet
facet normal 0 0 1
outer loop
vertex -0.011674365043640137 0.15894300842285156 -0.63
vertex -0.026539236068725585 0.2578516845703125 -0.63
vertex -0.03623094177246094 0.25597303771972657 -0.63
endloop
endfacet
facet normal 0 0 1
outer loop
vertex -0.011674365043640137 0.15894300842285156 -0.63
vertex -0.03623094177246094 0.25597303771972657 -0.63
vertex -0.01769967269897461 0.15754376220703126 -0.63
endloop
endfacet
facet normal 0 0 1
outer loop
vertex -0.01769967269897461 0.15754376220703126 -0.63
vertex -0.03623094177246094 0.25597303771972657 -0.63
vertex -0.04579294967651367 0.25351815795898436 -0.63
endloop
endfacet
facet normal 0 0 1
outer loop
vertex -0.01769967269897461 0.15754376220703126 -0.63
vertex -0.04579294967651367 0.25351815795898436 -0.63
vertex -0.05519102859497071 0.25049581909179686 -0.63
endloop
endfacet
facet normal 0 0 1
outer loop
vertex -0.01769967269897461 0.15754376220703126 -0.63
vertex -0.05519102859497071 0.25049581909179686 -0.63
vertex -0.02356468963623047 0.15557809448242188 -0.63
endloop
endfacet
facet normal 0 0 1
outer loop
vertex -0.02356468963623047 0.15557809448242188 -0.63
vertex -0.05519102859497071 0.25049581909179686 -0.63
vertex -0.06439154052734375 0.24691685485839845 -0.63
endloop
endfacet
facet normal 0 0 1
outer loop
vertex -0.02356468963623047 0.15557809448242188 -0.63
vertex -0.06439154052734375 0.24691685485839845 -0.63
vertex -0.02921630096435547 0.15306382751464845 -0.63
endloop
endfacet
facet normal 0 0 1
outer loop
vertex -0.02921630096435547 0.15306382751464845 -0.63
vertex -0.06439154052734375 0.24691685485839845 -0.63
vertex -0.07336154937744141 0.24279405212402344 -0.63
endloop
endfacet
facet normal 0 0 1
outer loop
vertex -0.02921630096435547 0.15306382751464845 -0.63
vertex -0.07336154937744141 0.24279405212402344 -0.63
vertex -0.08206893920898438 0.23814219665527345 -0.63
endloop
endfacet
facet normal 0 0 1
outer loop
vertex -0.02921630096435547 0.15306382751464845 -0.63
vertex -0.08206893920898438 0.23814219665527345 -0.63
vertex -0.03460332489013672 0.1500237274169922 -0.63
endloop
endfacet
facet normal 0 0 1
outer loop
vertex -0.03460332489013672 0.1500237274169922 -0.63
vertex -0.08206893920898438 0.23814219665527345 -0.63
vertex -0.09048254394531251 0.23297793579101564 -0.63
endloop
endfacet
facet normal 0 0 1
outer loop
vertex -0.03460332489013672 0.1500237274169922 -0.63
vertex -0.09048254394531251 0.23297793579101564 -0.63
vertex -0.03967697525024414 0.14648532104492187 -0.63
endloop
endfacet
facet normal 0 0 1
outer loop
vertex -0.03967697525024414 0.14648532104492187 -0.63
vertex -0.09048254394531251 0.23297793579101564 -0.63
vertex -0.0985722427368164 0.22731973266601563 -0.63
endloop
endfacet
facet normal 0 0 1
outer loop
vertex -0.03967697525024414 0.14648532104492187 -0.63
vertex -0.0985722427368164 0.22731973266601563 -0.63
vertex -0.10630908203125 0.2211878662109375 -0.63
endloop
endfacet
facet normal 0 0 1
outer loop
vertex -0.03967697525024414 0.14648532104492187 -0.63
vertex -0.10630908203125 0.2211878662109375 -0.63
vertex -0.044391304016113284 0.14248065185546877 -0.63
endloop
endfacet
facet normal 0 0 1
outer loop
vertex -0.044391304016113284 0.14248065185546877 -0.63
vertex -0.10630908203125 0.2211878662109375 -0.63
vertex -0.11366535949707031 0.2146042938232422 -0.63
endloop
endfacet
facet normal 0 0 1
outer loop
vertex -0.044391304016113284 0.14248065185546877 -0.63
vertex -0.11366535949707031 0.2146042938232422 -0.63
vertex -0.12061474609375 0.20759254455566406 -0.63
endloop
endfacet
facet normal 0 0 1
outer loop
vertex -0.044391304016113284 0.14248065185546877 -0.63
vertex -0.12061474609375 0.20759254455566406 -0.63
vertex -0.048703620910644535 0.13804598999023437 -0.63
endloop
endfacet
facet normal 0 0 1
outer loop
vertex -0.048703620910644535 0.13804598999023437 -0.63
vertex -0.12061474609375 0.20759254455566406 -0.63
vertex -0.12713236999511718 0.20017776489257813 -0.63
endloop
endfacet
facet normal 0 0 1
outer loop
vertex -0.048703620910644535 0.13804598999023437 -0.63
vertex -0.12713236999511718 0.20017776489257813 -0.63
vertex -0.052574867248535155 0.13322149658203125 -0.63
endloop
endfacet
facet normal 0 0 1
outer loop
vertex -0.052574867248535155 0.13322149658203125 -0.63
vertex -0.12713236999511718 0.20017776489257813 -0.63
vertex -0.13319488525390624 0.19238645935058593 -0.63
endloop
endfacet
facet normal 0 0 1
outer loop
vertex -0.052574867248535155 0.13322149658203125 -0.63
vertex -0.13319488525390624 0.19238645935058593 -0.63
vertex -0.1387805938720703 0.1842465515136719 -0.63
endloop
endfacet
facet normal 0 0 1
outer loop
vertex -0.052574867248535155 0.13322149658203125 -0.63
vertex -0.1387805938720703 0.1842465515136719 -0.63
vertex -0.05596998977661133 0.1280508728027344 -0.63
endloop
endfacet
facet normal 0 0 1
outer loop
vertex -0.05596998977661133 0.1280508728027344 -0.63
vertex -0.1387805938720703 0.1842465515136719 -0.63
vertex -0.1438695068359375 0.1757871551513672 -0.63
endloop
endfacet
facet normal 0 0 1
outer loop
vertex -0.05596998977661133 0.1280508728027344 -0.63
vertex -0.1438695068359375 0.1757871551513672 -0.63
vertex -0.05885823822021485 0.1225809326171875 -0.63
endloop
endfacet
facet normal 0 0 1
outer loop
vertex -0.05885823822021485 0.1225809326171875 -0.63
vertex -0.1438695068359375 0.1757871551513672 -0.63
vertex -0.1484434051513672 0.16703855895996095 -0.63
endloop
endfacet
facet normal 0 0 1
outer loop
vertex -0.05885823822021485 0.1225809326171875 -0.63
vertex -0.1484434051513672 0.16703855895996095 -0.63
vertex -0.15248591613769533 0.15803208923339845 -0.63
endloop
endfacet
facet normal 0 0 1
outer loop
vertex -0.05885823822021485 0.1225809326171875 -0.63
vertex -0.15248591613769533 0.15803208923339845 -0.63
vertex -0.06121345901489258 0.11686121368408203 -0.63
endloop
endfacet
facet normal 0 0 1
outer loop
vertex -0.06121345901489258 0.11686121368408203 -0.63
vertex -0.15248591613769533 0.15803208923339845 -0.63
vertex -0.15598257446289063 0.1487999725341797 -0.63
endloop
endfacet
facet normal 0 0 1
outer loop
vertex -0.06121345901489258 0.11686121368408203 -0.63
vertex -0.15598257446289063 0.1487999725341797 -0.63
vertex -0.15892085266113282 0.13937527465820312 -0.63
endloop
endfacet
facet normal 0 0 1
outer loop
vertex -0.06121345901489258 0.11686121368408203 -0.63
vertex -0.15892085266113282 0.13937527465820312 -0.63
vertex -0.06301432037353516 0.11094351196289062 -0.63
endloop
endfacet
facet normal 0 0 1
outer loop
vertex -0.06301432037353516 0.11094351196289062 -0.63
vertex -0.15892085266113282 0.13937527465820312 -0.63
vertex -0.16129022216796876 0.12979171752929688 -0.63
endloop
endfacet
facet normal 0 0 1
outer loop
vertex -0.06301432037353516 0.11094351196289062 -0.63
vertex -0.16129022216796876 0.12979171752929688 -0.63
vertex -0.06424451446533204 0.10488142395019531 -0.63
endloop
endfacet
facet normal 0 0 1
outer loop
vertex -0.06424451446533204 0.10488142395019531 -0.63
vertex -0.16129022216796876 0.12979171752929688 -0.63
vertex -0.1630822296142578 0.12008362579345704 -0.63
endloop
endfacet
facet normal 0 0 1
outer loop
vertex -0.06424451446533204 0.10488142395019531 -0.63
vertex -0.1630822296142578 0.12008362579345704 -0.63
vertex -0.16429043579101563 0.11028572845458985 -0.63
endloop
endfacet
facet normal 0 0 1
outer loop
vertex -0.06424451446533204 0.10488142395019531 -0.63
vertex -0.16429043579101563 0.11028572845458985 -0.63
vertex -0.06489289855957031 0.09872985076904298 -0.63
endloop
endfacet
facet normal 0 0 1
outer loop
vertex -0.06489289855957031 0.09872985076904298 -0.63
vertex -0.16429043579101563 0.11028572845458985 -0.63
vertex -0.16491052246093751 0.10043312072753907 -0.63
endloop
endfacet
facet normal 0 0 1
outer loop
vertex -0.06489289855957031 0.09872985076904298 -0.63
vertex -0.16491052246093751 0.10043312072753907 -0.63
vertex -0.06495360565185547 0.09254450225830078 -0.63
endloop
endfacet
facet normal 0 0 1
outer loop
vertex -0.06495360565185547 0.09254450225830078 -0.63
vertex -0.16491052246093751 0.10043312072753907 -0.63
vertex -0.16494027709960937 0.09056106567382813 -0.63
endloop
endfacet
facet normal 0 0 1
outer loop
vertex -0.06495360565185547 0.09254450225830078 -0.63
vertex -0.16494027709960937 0.09056106567382813 -0.63
vertex -0.16437959289550783 0.08070489501953125 -0.63
endloop
endfacet
facet normal 0 0 1
outer loop
vertex -0.06495360565185547 0.09254450225830078 -0.63
vertex -0.16437959289550783 0.08070489501953125 -0.63
vertex -0.06442607879638672 0.08638138580322266 -0.63
endloop
endfacet
facet normal 0 0 1
outer loop
vertex -0.06442607879638672 0.08638138580322266 -0.63
vertex -0.16437959289550783 0.08070489501953125 -0.63
vertex -0.16323046875 0.07089989471435547 -0.63
endloop
endfacet
facet normal 0 0 1
outer loop
vertex -0.06442607879638672 0.08638138580322266 -0.63
vertex -0.16323046875 0.07089989471435547 -0.63
vertex -0.16149702453613282 0.061181175231933595 -0.63
endloop
endfacet
facet normal 0 0 1
outer loop
vertex -0.06442607879638672 0.08638138580322266 -0.63
vertex -0.16149702453613282 0.061181175231933595 -0.63
vertex -0.06331510162353515 0.08029632568359375 -0.63
endloop
endfacet
facet normal 0 0 1
outer loop
vertex -0.06331510162353515 0.08029632568359375 -0.63
vertex -0.16149702453613282 0.061181175231933595 -0.63
vertex -0.15918545532226563 0.051583511352539066 -0.63
endloop
endfacet
facet normal 0 0 1
outer loop
vertex -0.06331510162353515 0.08029632568359375 -0.63
vertex -0.15918545532226563 0.051583511352539066 -0.63
vertex -0.061630733489990236 0.07434442138671875 -0.63
endloop
endfacet
facet normal 0 0 1
outer loop
vertex -0.061630733489990236 0.07434442138671875 -0.63
vertex -0.15918545532226563 0.051583511352539066 -0.63
vertex -0.15630404663085937 0.04214127349853516 -0.63
endloop
endfacet
facet normal 0 0 1
outer loop
vertex -0.061630733489990236 0.07434442138671875 -0.63
vertex -0.15630404663085937 0.04214127349853516 -0.63
vertex -0.15286311340332032 0.03288825225830078 -0.63
endloop
endfacet
facet normal 0 0 1
outer loop
vertex -0.061630733489990236 0.07434442138671875 -0.63
vertex -0.15286311340332032 0.03288825225830078 -0.63
vertex -0.05938822555541992 0.06857958221435546 -0.63
endloop
endfacet
facet normal 0 0 1
outer loop
vertex -0.05938822555541992 0.06857958221435546 -0.63
vertex -0.15286311340332032 0.03288825225830078 -0.63
vertex -0.14887496948242188 0.023857574462890625 -0.63
endloop
endfacet
facet normal 0 0 1
outer loop
vertex -0.05938822555541992 0.06857958221435546 -0.63
vertex -0.14887496948242188 0.023857574462890625 -0.63
vertex -0.05660789108276367 0.06305400466918945 -0.63
endloop
endfacet
facet normal 0 0 1
outer loop
vertex -0.05660789108276367 0.06305400466918945 -0.63
vertex -0.14887496948242188 0.023857574462890625 -0.63
vertex -0.1443538818359375 0.015081567764282227 -0.63
endloop
endfacet
facet normal 0 0 1
outer loop
vertex -0.05660789108276367 0.06305400466918945 -0.63
vertex -0.1443538818359375 0.015081567764282227 -0.63
vertex -0.13931605529785157 0.006591649532318116 -0.63
endloop
endfacet
facet normal 0 0 1
outer loop
vertex -0.13377951049804687 -0.0015817897319793702 -0.63
vertex -0.006813357830047608 0.030358078002929688 -0.63
vertex -0.13931605529785157 0.006591649532318116 -0.63
endloop
endfacet
facet normal 0 0 1
outer loop
vertex -0.13931605529785157 0.006591649532318116 -0.63
vertex -0.006813357830047608 0.030358078002929688 -0.63
vertex -0.012927111625671388 0.031298431396484375 -0.63
endloop
endfacet
facet normal 0 0 1
outer loop
vertex -0.13931605529785157 0.006591649532318116 -0.63
vertex -0.012927111625671388 0.031298431396484375 -0.63
vertex -0.018923795700073243 0.03281567764282227 -0.63
endloop
endfacet
facet normal 0 0 1
outer loop
vertex -0.0006379010677337646 0.030003129959106447 -0.63
vertex -0.006813357830047608 0.030358078002929688 -0.63
vertex -0.13377951049804687 -0.0015817897319793702 -0.63
endloop
endfacet
facet normal 0 0 1
outer loop
vertex -0.018923795700073243 0.03281567764282227 -0.63
vertex -0.024749103546142577 0.034896072387695314 -0.63
vertex -0.13931605529785157 0.006591649532318116 -0.63
endloop
endfacet
facet normal 0 0 1
outer loop
vertex -0.13931605529785157 0.006591649532318116 -0.63
vertex -0.024749103546142577 0.034896072387695314 -0.63
vertex -0.030350278854370118 0.037520782470703125 -0.63
endloop
endfacet
facet normal 0 0 1
outer loop
vertex -0.13931605529785157 0.006591649532318116 -0.63
vertex -0.030350278854370118 0.037520782470703125 -0.63
vertex -0.03567659759521485 0.04066603088378906 -0.63
endloop
endfacet
facet normal 0 0 1
outer loop
vertex -0.03567659759521485 0.04066603088378906 -0.63
vertex -0.04067982482910156 0.04430333328247071 -0.63
vertex -0.13931605529785157 0.006591649532318116 -0.63
endloop
endfacet
facet normal 0 0 1
outer loop
vertex -0.13931605529785157 0.006591649532318116 -0.63
vertex -0.04067982482910156 0.04430333328247071 -0.63
vertex -0.045314647674560546 0.04839975357055664 -0.63
endloop
endfacet
facet normal 0 0 1
outer loop
vertex -0.13931605529785157 0.006591649532318116 -0.63
vertex -0.045314647674560546 0.04839975357055664 -0.63
vertex -0.049539093017578126 0.05291819381713867 -0.63
endloop
endfacet
facet normal 0 0 1
outer loop
vertex -0.049539093017578126 0.05291819381713867 -0.63
vertex -0.05331490707397461 0.05781773376464844 -0.63
vertex -0.13931605529785157 0.006591649532318116 -0.63
endloop
endfacet
facet normal 0 0 1
outer loop
vertex -0.13931605529785157 0.006591649532318116 -0.63
vertex -0.05331490707397461 0.05781773376464844 -0.63
vertex -0.05660789108276367 0.06305400466918945 -0.63
endloop
endfacet
endsolid atmosphere
