solid side
facet normal 0.39134249091148376 -0.9202451109886169 -9.396907283873955e-15
outer loop
vertex 0.06926248931884765 -0.054758831024169924 -0.8300000000000001
vertex 0.06926248931884765 -0.054758831024169924 -0.63
vertex 0.059818058013916015 -0.058775161743164064 -0.8300000000000001
endloop
endfacet
facet normal 0.39134249091148376 -0.9202451109886169 -9.41906820687297e-15
outer loop
vertex 0.059818058013916015 -0.058775161743164064 -0.8300000000000001
vertex 0.06926248931884765 -0.054758831024169924 -0.63
vertex 0.059818058013916015 -0.058775161743164064 -0.63
endloop
endfacet
facet normal 0.33337417244911194 -0.9427946209907532 -9.412258061977045e-15
outer loop
vertex 0.059818058013916015 -0.058775161743164064 -0.8300000000000001
vertex 0.059818058013916015 -0.058775161743164064 -0.63
vertex 0.050142200469970706 -0.062196563720703125 -0.8300000000000001
endloop
endfacet
facet normal 0.33337417244911194 -0.9427946209907532 -9.404111299090353e-15
outer loop
vertex 0.050142200469970706 -0.062196563720703125 -0.8300000000000001
vertex 0.059818058013916015 -0.058775161743164064 -0.63
vertex 0.050142200469970706 -0.062196563720703125 -0.63
endloop
endfacet
facet normal 0.27411606907844543 -0.9616966247558594 -9.388836753952516e-15
outer loop
vertex 0.050142200469970706 -0.062196563720703125 -0.8300000000000001
vertex 0.050142200469970706 -0.062196563720703125 -0.63
vertex 0.0402723503112793 -0.06500980377197266 -0.8300000000000001
endloop
endfacet
facet normal 0.27411606907844543 -0.9616966247558594 -9.466907780700945e-15
outer loop
vertex 0.0402723503112793 -0.06500980377197266 -0.8300000000000001
vertex 0.050142200469970706 -0.062196563720703125 -0.63
vertex 0.0402723503112793 -0.06500980377197266 -0.63
endloop
endfacet
facet normal 0.21379749476909637 -0.9768779873847961 -9.414245201271303e-15
outer loop
vertex 0.0402723503112793 -0.06500980377197266 -0.8300000000000001
vertex 0.0402723503112793 -0.06500980377197266 -0.63
vertex 0.030246696472167968 -0.0672040023803711 -0.8300000000000001
endloop
endfacet
facet normal 0.21379749476909637 -0.9768779873847961 -9.366569951835095e-15
outer loop
vertex 0.030246696472167968 -0.0672040023803711 -0.8300000000000001
vertex 0.0402723503112793 -0.06500980377197266 -0.63
vertex 0.030246696472167968 -0.0672040023803711 -0.63
endloop
endfacet
facet normal 0.15265177190303802 -0.9882800579071045 -9.249796295660723e-15
outer loop
vertex 0.030246696472167968 -0.0672040023803711 -0.8300000000000001
vertex 0.030246696472167968 -0.0672040023803711 -0.63
vertex 0.02010402297973633 -0.06877066040039062 -0.8300000000000001
endloop
endfacet
facet normal 0.15265177190303802 -0.9882800579071045 -9.19827551664398e-15
outer loop
vertex 0.02010402297973633 -0.06877066040039062 -0.8300000000000001
vertex 0.030246696472167968 -0.0672040023803711 -0.63
vertex 0.02010402297973633 -0.06877066040039062 -0.63
endloop
endfacet
facet normal 0.09091547876596451 -0.9958586096763611 -9.066553423016464e-15
outer loop
vertex 0.02010402297973633 -0.06877066040039062 -0.8300000000000001
vertex 0.02010402297973633 -0.06877066040039062 -0.63
vertex 0.009883571624755859 -0.06970372009277344 -0.8300000000000001
endloop
endfacet
facet normal 0.09091547876596451 -0.9958586096763611 -9.089163273477523e-15
outer loop
vertex 0.009883571624755859 -0.06970372009277344 -0.8300000000000001
vertex 0.02010402297973633 -0.06877066040039062 -0.63
vertex 0.009883571624755859 -0.06970372009277344 -0.63
endloop
endfacet
facet normal 0.02882743999361992 -0.9995843768119812 -8.906923287842813e-15
outer loop
vertex 0.009883571624755859 -0.06970372009277344 -0.8300000000000001
vertex 0.009883571624755859 -0.06970372009277344 -0.63
vertex -0.00037511786818504334 -0.06999957275390625 -0.8300000000000001
endloop
endfacet
facet normal 0.02882743999361992 -0.9995843768119812 -8.909483868442362e-15
outer loop
vertex -0.00037511786818504334 -0.06999957275390625 -0.8300000000000001
vertex 0.009883571624755859 -0.06970372009277344 -0.63
vertex -0.00037511786818504334 -0.06999957275390625 -0.63
endloop
endfacet
facet normal -0.033372122794389725 -0.999442994594574 -8.68726053956546e-15
outer loop
vertex -0.00037511786818504334 -0.06999957275390625 -0.8300000000000001
vertex -0.00037511786818504334 -0.06999957275390625 -0.63
vertex -0.010632355690002442 -0.06965707397460938 -0.8300000000000001
endloop
endfacet
facet normal -0.033372122794389725 -0.999442994594574 -8.62958437212102e-15
outer loop
vertex -0.010632355690002442 -0.06965707397460938 -0.8300000000000001
vertex -0.00037511786818504334 -0.06999957275390625 -0.63
vertex -0.010632355690002442 -0.06965707397460938 -0.63
endloop
endfacet
facet normal -0.09544257819652557 -0.9954349398612976 -8.398844973992424e-15
outer loop
vertex -0.010632355690002442 -0.06965707397460938 -0.8300000000000001
vertex -0.010632355690002442 -0.06965707397460938 -0.63
vertex -0.020848459243774414 -0.06867755126953125 -0.8300000000000001
endloop
endfacet
facet normal -0.09544257819652557 -0.9954349398612976 -8.431428637407402e-15
outer loop
vertex -0.020848459243774414 -0.06867755126953125 -0.8300000000000001
vertex -0.010632355690002442 -0.06965707397460938 -0.63
vertex -0.020848459243774414 -0.06867755126953125 -0.63
endloop
endfacet
facet normal -0.15714378654956818 -0.9875757098197937 -8.142975802384687e-15
outer loop
vertex -0.020848459243774414 -0.06867755126953125 -0.8300000000000001
vertex -0.020848459243774414 -0.06867755126953125 -0.63
vertex -0.030983903884887695 -0.06706479644775391 -0.8300000000000001
endloop
endfacet
facet normal -0.15714378654956818 -0.9875757098197937 -8.156933211289543e-15
outer loop
vertex -0.030983903884887695 -0.06706479644775391 -0.8300000000000001
vertex -0.020848459243774414 -0.06867755126953125 -0.63
vertex -0.030983903884887695 -0.06706479644775391 -0.63
endloop
endfacet
facet normal -0.2182370275259018 -0.9758958220481873 -7.842403619952656e-15
outer loop
vertex -0.030983903884887695 -0.06706479644775391 -0.8300000000000001
vertex -0.030983903884887695 -0.06706479644775391 -0.63
vertex -0.04099947738647461 -0.06482503509521484 -0.8300000000000001
endloop
endfacet
facet normal -0.2182370275259018 -0.9758958220481873 -7.846719252818917e-15
outer loop
vertex -0.04099947738647461 -0.06482503509521484 -0.8300000000000001
vertex -0.030983903884887695 -0.06706479644775391 -0.63
vertex -0.04099947738647461 -0.06482503509521484 -0.63
endloop
endfacet
facet normal -0.2784859538078308 -0.9604402780532837 -7.523281415975757e-15
outer loop
vertex -0.04099947738647461 -0.06482503509521484 -0.8300000000000001
vertex -0.04099947738647461 -0.06482503509521484 -0.63
vertex -0.050856433868408206 -0.06196694946289063 -0.8300000000000001
endloop
endfacet
facet normal -0.2784859538078308 -0.9604402780532837 -7.492586636033156e-15
outer loop
vertex -0.050856433868408206 -0.06196694946289063 -0.8300000000000001
vertex -0.04099947738647461 -0.06482503509521484 -0.63
vertex -0.050856433868408206 -0.06196694946289063 -0.63
endloop
endfacet
facet normal -0.33765748143196106 -0.941269040107727 -7.117659360392301e-15
outer loop
vertex -0.050856433868408206 -0.06196694946289063 -0.8300000000000001
vertex -0.050856433868408206 -0.06196694946289063 -0.63
vertex -0.06051663589477539 -0.0585015869140625 -0.8300000000000001
endloop
endfacet
facet normal -0.33765748143196106 -0.941269040107727 -7.093667152161323e-15
outer loop
vertex -0.06051663589477539 -0.0585015869140625 -0.8300000000000001
vertex -0.050856433868408206 -0.06196694946289063 -0.63
vertex -0.06051663589477539 -0.0585015869140625 -0.63
endloop
endfacet
facet normal -0.3955226540565491 -0.9184561967849731 -6.687090913962785e-15
outer loop
vertex -0.06051663589477539 -0.0585015869140625 -0.8300000000000001
vertex -0.06051663589477539 -0.0585015869140625 -0.63
vertex -0.06994271087646485 -0.054442356109619144 -0.8300000000000001
endloop
endfacet
facet normal -0.3955226540565491 -0.9184561967849731 -6.823082053644463e-15
outer loop
vertex -0.06994271087646485 -0.054442356109619144 -0.8300000000000001
vertex -0.06051663589477539 -0.0585015869140625 -0.63
vertex -0.06994271087646485 -0.054442356109619144 -0.63
endloop
endfacet
facet normal -0.45185765624046326 -0.8920900225639343 -6.415588902280523e-15
outer loop
vertex -0.06994271087646485 -0.054442356109619144 -0.8300000000000001
vertex -0.06994271087646485 -0.054442356109619144 -0.63
vertex -0.0790981903076172 -0.04980495834350586 -0.8300000000000001
endloop
endfacet
facet normal -0.45185765624046326 -0.8920900225639343 -6.2871630373672466e-15
outer loop
vertex -0.0790981903076172 -0.04980495834350586 -0.8300000000000001
vertex -0.06994271087646485 -0.054442356109619144 -0.63
vertex -0.0790981903076172 -0.04980495834350586 -0.63
endloop
endfacet
facet normal -0.50644451379776 -0.8622725605964661 -5.839334177055056e-15
outer loop
vertex -0.0790981903076172 -0.04980495834350586 -0.8300000000000001
vertex -0.0790981903076172 -0.04980495834350586 -0.63
vertex -0.0879476547241211 -0.044607341766357424 -0.8300000000000001
endloop
endfacet
facet normal -0.50644451379776 -0.8622725605964661 -5.860738276115699e-15
outer loop
vertex -0.0879476547241211 -0.044607341766357424 -0.8300000000000001
vertex -0.0790981903076172 -0.04980495834350586 -0.63
vertex -0.0879476547241211 -0.044607341766357424 -0.63
endloop
endfacet
facet normal -0.5590720176696777 -0.829119086265564 -5.409987575651955e-15
outer loop
vertex -0.0879476547241211 -0.044607341766357424 -0.8300000000000001
vertex -0.0879476547241211 -0.044607341766357424 -0.63
vertex -0.09645686340332031 -0.038869613647460936 -0.8300000000000001
endloop
endfacet
facet normal -0.5590720176696777 -0.829119086265564 -5.224330235591547e-15
outer loop
vertex -0.09645686340332031 -0.038869613647460936 -0.8300000000000001
vertex -0.0879476547241211 -0.044607341766357424 -0.63
vertex -0.09645686340332031 -0.038869613647460936 -0.63
endloop
endfacet
facet normal -0.6095365881919861 -0.7927579283714294 -4.771446706166617e-15
outer loop
vertex -0.09645686340332031 -0.038869613647460936 -0.8300000000000001
vertex -0.09645686340332031 -0.038869613647460936 -0.63
vertex -0.10459290313720704 -0.032613967895507814 -0.8300000000000001
endloop
endfacet
facet normal -0.6095365881919861 -0.7927579283714294 -4.819267221753279e-15
outer loop
vertex -0.10459290313720704 -0.032613967895507814 -0.8300000000000001
vertex -0.09645686340332031 -0.038869613647460936 -0.63
vertex -0.10459290313720704 -0.032613967895507814 -0.63
endloop
endfacet
facet normal -0.6576429605484009 -0.7533297538757324 -4.3009681848448465e-15
outer loop
vertex -0.10459290313720704 -0.032613967895507814 -0.8300000000000001
vertex -0.10459290313720704 -0.032613967895507814 -0.63
vertex -0.11232429504394531 -0.025864606857299806 -0.8300000000000001
endloop
endfacet
facet normal -0.6576429605484009 -0.7533297538757324 -4.347264041126451e-15
outer loop
vertex -0.11232429504394531 -0.025864606857299806 -0.8300000000000001
vertex -0.10459290313720704 -0.032613967895507814 -0.63
vertex -0.11232429504394531 -0.025864606857299806 -0.63
endloop
endfacet
facet normal -0.7032050490379333 -0.7109870910644531 -3.8390425787079765e-15
outer loop
vertex -0.11232429504394531 -0.025864606857299806 -0.8300000000000001
vertex -0.11232429504394531 -0.025864606857299806 -0.63
vertex -0.11962112426757812 -0.018647645950317385 -0.8300000000000001
endloop
endfacet
facet normal -0.7032050490379333 -0.7109870910644531 -3.779764671960279e-15
outer loop
vertex -0.11962112426757812 -0.018647645950317385 -0.8300000000000001
vertex -0.11232429504394531 -0.025864606857299806 -0.63
vertex -0.11962112426757812 -0.018647645950317385 -0.63
endloop
endfacet
facet normal -0.7460466027259827 -0.6658937931060791 -3.2169585005966056e-15
outer loop
vertex -0.11962112426757812 -0.018647645950317385 -0.8300000000000001
vertex -0.11962112426757812 -0.018647645950317385 -0.63
vertex -0.12645516204833984 -0.010991003036499023 -0.8300000000000001
endloop
endfacet
facet normal -0.7460466027259827 -0.6658937931060791 -3.2454344777338743e-15
outer loop
vertex -0.12645516204833984 -0.010991003036499023 -0.8300000000000001
vertex -0.11962112426757812 -0.018647645950317385 -0.63
vertex -0.12645516204833984 -0.010991003036499023 -0.63
endloop
endfacet
facet normal -0.7860018014907837 -0.6182242035865784 -2.7013130061536838e-15
outer loop
vertex -0.12645516204833984 -0.010991003036499023 -0.8300000000000001
vertex -0.12645516204833984 -0.010991003036499023 -0.63
vertex -0.1327999725341797 -0.0029243028163909914 -0.8300000000000001
endloop
endfacet
facet normal -0.7860018014907837 -0.6182242035865784 -2.7022525774504256e-15
outer loop
vertex -0.1327999725341797 -0.0029243028163909914 -0.8300000000000001
vertex -0.12645516204833984 -0.010991003036499023 -0.63
vertex -0.1327999725341797 -0.0029243028163909914 -0.63
endloop
endfacet
facet normal -0.8229161500930786 -0.5681628584861755 -2.154749538586559e-15
outer loop
vertex -0.1327999725341797 -0.0029243028163909914 -0.8300000000000001
vertex -0.1327999725341797 -0.0029243028163909914 -0.63
vertex -0.13863099670410156 0.0055212478637695316 -0.8300000000000001
endloop
endfacet
facet normal -0.8229161500930786 -0.5681628584861755 -2.0722517058975425e-15
outer loop
vertex -0.13863099670410156 0.0055212478637695316 -0.8300000000000001
vertex -0.1327999725341797 -0.0029243028163909914 -0.63
vertex -0.13863099670410156 0.0055212478637695316 -0.63
endloop
endfacet
facet normal -0.8566467761993408 -0.5159034132957458 -1.4929007576125063e-15
outer loop
vertex -0.13863099670410156 0.0055212478637695316 -0.8300000000000001
vertex -0.13863099670410156 0.0055212478637695316 -0.63
vertex -0.14392568969726563 0.01431297492980957 -0.8300000000000001
endloop
endfacet
facet normal -0.8566467761993408 -0.5159034132957458 -1.5229947794372675e-15
outer loop
vertex -0.14392568969726563 0.01431297492980957 -0.8300000000000001
vertex -0.13863099670410156 0.0055212478637695316 -0.63
vertex -0.14392568969726563 0.01431297492980957 -0.63
endloop
endfacet
facet normal -0.887063205242157 -0.46164804697036743 -9.51828287005076e-16
outer loop
vertex -0.14392568969726563 0.01431297492980957 -0.8300000000000001
vertex -0.14392568969726563 0.01431297492980957 -0.63
vertex -0.14866355895996095 0.023416864395141603 -0.8300000000000001
endloop
endfacet
facet normal -0.887063205242157 -0.46164804697036743 -9.958823647126538e-16
outer loop
vertex -0.14866355895996095 0.023416864395141603 -0.8300000000000001
vertex -0.14392568969726563 0.01431297492980957 -0.63
vertex -0.14866355895996095 0.023416864395141603 -0.63
endloop
endfacet
facet normal -0.9140477180480957 -0.40560662746429443 -4.348231193933538e-16
outer loop
vertex -0.14866355895996095 0.023416864395141603 -0.8300000000000001
vertex -0.14866355895996095 0.023416864395141603 -0.63
vertex -0.15282627868652343 0.03279769515991211 -0.8300000000000001
endloop
endfacet
facet normal -0.9140477180480957 -0.40560662746429443 -1.964465810447367e-16
outer loop
vertex -0.15282627868652343 0.03279769515991211 -0.8300000000000001
vertex -0.14866355895996095 0.023416864395141603 -0.63
vertex -0.15282627868652343 0.03279769515991211 -0.63
endloop
endfacet
facet normal -0.9374960064888 -0.3479959964752197 3.9778228920058444e-16
outer loop
vertex -0.15282627868652343 0.03279769515991211 -0.8300000000000001
vertex -0.15282627868652343 0.03279769515991211 -0.63
vertex -0.1563977508544922 0.04241917419433594 -0.8300000000000001
endloop
endfacet
facet normal -0.9374960064888 -0.3479959964752197 3.387359136150628e-16
outer loop
vertex -0.1563977508544922 0.04241917419433594 -0.8300000000000001
vertex -0.15282627868652343 0.03279769515991211 -0.63
vertex -0.1563977508544922 0.04241917419433594 -0.63
endloop
endfacet
facet normal -0.9573172926902771 -0.2890390455722809 9.160416743791738e-16
outer loop
vertex -0.1563977508544922 0.04241917419433594 -0.8300000000000001
vertex -0.1563977508544922 0.04241917419433594 -0.63
vertex -0.15936415100097656 0.05224407577514648 -0.8300000000000001
endloop
endfacet
facet normal -0.9573172926902771 -0.2890390455722809 7.569117121608766e-16
outer loop
vertex -0.15936415100097656 0.05224407577514648 -0.8300000000000001
vertex -0.1563977508544922 0.04241917419433594 -0.63
vertex -0.15936415100097656 0.05224407577514648 -0.63
endloop
endfacet
facet normal -0.9734349250793457 -0.22896386682987213 1.3026152295283013e-15
outer loop
vertex -0.15936415100097656 0.05224407577514648 -0.8300000000000001
vertex -0.15936415100097656 0.05224407577514648 -0.63
vertex -0.1617139892578125 0.06223439407348633 -0.8300000000000001
endloop
endfacet
facet normal -0.9734349250793457 -0.22896386682987213 1.6037335364530738e-15
outer loop
vertex -0.1617139892578125 0.06223439407348633 -0.8300000000000001
vertex -0.15936415100097656 0.05224407577514648 -0.63
vertex -0.1617139892578125 0.06223439407348633 -0.63
endloop
endfacet
facet normal -0.985786497592926 -0.16800285875797272 2.1799841323929224e-15
outer loop
vertex -0.1617139892578125 0.06223439407348633 -0.8300000000000001
vertex -0.1617139892578125 0.06223439407348633 -0.63
vertex -0.16343820190429686 0.07235147857666016 -0.8300000000000001
endloop
endfacet
facet normal -0.985786497592926 -0.16800285875797272 1.94158734466291e-15
outer loop
vertex -0.16343820190429686 0.07235147857666016 -0.8300000000000001
vertex -0.1617139892578125 0.06223439407348633 -0.63
vertex -0.16343820190429686 0.07235147857666016 -0.63
endloop
endfacet
facet normal -0.994324266910553 -0.10639188438653946 2.4916551992910626e-15
outer loop
vertex -0.16343820190429686 0.07235147857666016 -0.8300000000000001
vertex -0.16343820190429686 0.07235147857666016 -0.63
vertex -0.16453009033203125 0.08255618286132813 -0.8300000000000001
endloop
endfacet
facet normal -0.994324266910553 -0.10639188438653946 2.663195676494293e-15
outer loop
vertex -0.16453009033203125 0.08255618286132813 -0.8300000000000001
vertex -0.16343820190429686 0.07235147857666016 -0.63
vertex -0.16453009033203125 0.08255618286132813 -0.63
endloop
endfacet
facet normal -0.999015212059021 -0.044369302690029144 3.186662673172161e-15
outer loop
vertex -0.16453009033203125 0.08255618286132813 -0.8300000000000001
vertex -0.16453009033203125 0.08255618286132813 -0.63
vertex -0.16498545837402345 0.09280902862548829 -0.8300000000000001
endloop
endfacet
facet normal -0.999015212059021 -0.044369302690029144 3.1708996017819954e-15
outer loop
vertex -0.16498545837402345 0.09280902862548829 -0.8300000000000001
vertex -0.16453009033203125 0.08255618286132813 -0.63
vertex -0.16498545837402345 0.09280902862548829 -0.63
endloop
endfacet
facet normal -0.9998410940170288 0.017824938520789146 3.7041339471328896e-15
outer loop
vertex -0.16498545837402345 0.09280902862548829 -0.8300000000000001
vertex -0.16498545837402345 0.09280902862548829 -0.63
vertex -0.16480252075195312 0.10307035064697266 -0.8300000000000001
endloop
endfacet
facet normal -0.9998410940170288 0.017824938520789146 3.842420122585153e-15
outer loop
vertex -0.16480252075195312 0.10307035064697266 -0.8300000000000001
vertex -0.16498545837402345 0.09280902862548829 -0.63
vertex -0.16480252075195312 0.10307035064697266 -0.63
endloop
endfacet
facet normal -0.9967988729476929 0.07995022088289261 4.347648594084505e-15
outer loop
vertex -0.16480252075195312 0.10307035064697266 -0.8300000000000001
vertex -0.16480252075195312 0.10307035064697266 -0.63
vertex -0.16398199462890625 0.11330045318603515 -0.8300000000000001
endloop
endfacet
facet normal -0.9967988729476929 0.07995022088289261 4.2400800684644184e-15
outer loop
vertex -0.16398199462890625 0.11330045318603515 -0.8300000000000001
vertex -0.16480252075195312 0.10307035064697266 -0.63
vertex -0.16398199462890625 0.11330045318603515 -0.63
endloop
endfacet
facet normal -0.9899001717567444 0.14176619052886963 4.755822336421564e-15
outer loop
vertex -0.16398199462890625 0.11330045318603515 -0.8300000000000001
vertex -0.16398199462890625 0.11330045318603515 -0.63
vertex -0.1625270538330078 0.12345975494384766 -0.8300000000000001
endloop
endfacet
facet normal -0.9899001717567444 0.14176619052886963 4.89649545071919e-15
outer loop
vertex -0.1625270538330078 0.12345975494384766 -0.8300000000000001
vertex -0.16398199462890625 0.11330045318603515 -0.63
vertex -0.1625270538330078 0.12345975494384766 -0.63
endloop
endfacet
facet normal -0.9791717529296875 0.2030336856842041 5.392314233207494e-15
outer loop
vertex -0.1625270538330078 0.12345975494384766 -0.8300000000000001
vertex -0.1625270538330078 0.12345975494384766 -0.63
vertex -0.16044332885742188 0.1335089569091797 -0.8300000000000001
endloop
endfacet
facet normal -0.9791717529296875 0.2030336856842041 5.209886206258493e-15
outer loop
vertex -0.16044332885742188 0.1335089569091797 -0.8300000000000001
vertex -0.1625270538330078 0.12345975494384766 -0.63
vertex -0.16044332885742188 0.1335089569091797 -0.63
endloop
endfacet
facet normal -0.9646551012992859 0.2635156810283661 5.674013251025277e-15
outer loop
vertex -0.16044332885742188 0.1335089569091797 -0.8300000000000001
vertex -0.16044332885742188 0.1335089569091797 -0.63
vertex -0.15773887634277345 0.14340916442871093 -0.8300000000000001
endloop
endfacet
facet normal -0.9646551012992859 0.2635156810283661 5.611823245004919e-15
outer loop
vertex -0.15773887634277345 0.14340916442871093 -0.8300000000000001
vertex -0.16044332885742188 0.1335089569091797 -0.63
vertex -0.15773887634277345 0.14340916442871093 -0.63
endloop
endfacet
facet normal -0.9464064240455627 0.3229781985282898 6.073492200158771e-15
outer loop
vertex -0.15773887634277345 0.14340916442871093 -0.8300000000000001
vertex -0.15773887634277345 0.14340916442871093 -0.63
vertex -0.15442416381835938 0.15312208557128906 -0.8300000000000001
endloop
endfacet
facet normal -0.9464064240455627 0.3229781985282898 6.116188589931019e-15
outer loop
vertex -0.15442416381835938 0.15312208557128906 -0.8300000000000001
vertex -0.15773887634277345 0.14340916442871093 -0.63
vertex -0.15442416381835938 0.15312208557128906 -0.63
endloop
endfacet
facet normal -0.9244962334632874 0.3811911642551422 6.5347020634552114e-15
outer loop
vertex -0.15442416381835938 0.15312208557128906 -0.8300000000000001
vertex -0.15442416381835938 0.15312208557128906 -0.63
vertex -0.15051202392578125 0.16261015319824218 -0.8300000000000001
endloop
endfacet
facet normal -0.9244962334632874 0.3811911642551422 6.588872361530966e-15
outer loop
vertex -0.15051202392578125 0.16261015319824218 -0.8300000000000001
vertex -0.15442416381835938 0.15312208557128906 -0.63
vertex -0.15051202392578125 0.16261015319824218 -0.63
endloop
endfacet
facet normal -0.8990093469619751 0.4379293918609619 6.990166925786899e-15
outer loop
vertex -0.15051202392578125 0.16261015319824218 -0.8300000000000001
vertex -0.15051202392578125 0.16261015319824218 -0.63
vertex -0.14601756286621095 0.1718366394042969 -0.8300000000000001
endloop
endfacet
facet normal -0.8990093469619751 0.4379293918609619 6.86570009286909e-15
outer loop
vertex -0.14601756286621095 0.1718366394042969 -0.8300000000000001
vertex -0.15051202392578125 0.16261015319824218 -0.63
vertex -0.14601756286621095 0.1718366394042969 -0.63
endloop
endfacet
facet normal -0.8700444102287292 0.49297335743904114 7.224306737682248e-15
outer loop
vertex -0.14601756286621095 0.1718366394042969 -0.8300000000000001
vertex -0.14601756286621095 0.1718366394042969 -0.63
vertex -0.1409582061767578 0.180765869140625 -0.8300000000000001
endloop
endfacet
facet normal -0.8700444102287292 0.49297335743904114 7.488058397897134e-15
outer loop
vertex -0.1409582061767578 0.180765869140625 -0.8300000000000001
vertex -0.14601756286621095 0.1718366394042969 -0.63
vertex -0.1409582061767578 0.180765869140625 -0.63
endloop
endfacet
facet normal -0.8377134203910828 0.5461100935935974 7.82922378729338e-15
outer loop
vertex -0.1409582061767578 0.180765869140625 -0.8300000000000001
vertex -0.1409582061767578 0.180765869140625 -0.63
vertex -0.13535350036621094 0.18936328125000002 -0.8300000000000001
endloop
endfacet
facet normal -0.8377134203910828 0.5461100935935974 7.984437492680047e-15
outer loop
vertex -0.13535350036621094 0.18936328125000002 -0.8300000000000001
vertex -0.1409582061767578 0.180765869140625 -0.63
vertex -0.13535350036621094 0.18936328125000002 -0.63
endloop
endfacet
facet normal -0.8021414875984192 0.5971340537071228 8.309815034972419e-15
outer loop
vertex -0.13535350036621094 0.18936328125000002 -0.8300000000000001
vertex -0.13535350036621094 0.18936328125000002 -0.63
vertex -0.12922514343261718 0.1975956268310547 -0.8300000000000001
endloop
endfacet
facet normal -0.8021414875984192 0.5971340537071228 8.081832729087135e-15
outer loop
vertex -0.12922514343261718 0.1975956268310547 -0.8300000000000001
vertex -0.13535350036621094 0.18936328125000002 -0.63
vertex -0.12922514343261718 0.1975956268310547 -0.63
endloop
endfacet
facet normal -0.7634661793708801 0.6458477973937988 8.386052235390042e-15
outer loop
vertex -0.12922514343261718 0.1975956268310547 -0.8300000000000001
vertex -0.12922514343261718 0.1975956268310547 -0.63
vertex -0.12259683990478516 0.20543104553222657 -0.8300000000000001
endloop
endfacet
facet normal -0.7634661793708801 0.6458477973937988 8.381949207793542e-15
outer loop
vertex -0.12259683990478516 0.20543104553222657 -0.8300000000000001
vertex -0.12922514343261718 0.1975956268310547 -0.63
vertex -0.12259683990478516 0.20543104553222657 -0.63
endloop
endfacet
facet normal -0.7218372225761414 0.6920628547668457 8.619232782472626e-15
outer loop
vertex -0.12259683990478516 0.20543104553222657 -0.8300000000000001
vertex -0.12259683990478516 0.20543104553222657 -0.63
vertex -0.11549422454833985 0.2128392333984375 -0.8300000000000001
endloop
endfacet
facet normal -0.7218372225761414 0.6920628547668457 8.619232782472626e-15
outer loop
vertex -0.11549422454833985 0.2128392333984375 -0.8300000000000001
vertex -0.12259683990478516 0.20543104553222657 -0.63
vertex -0.11549422454833985 0.2128392333984375 -0.63
endloop
endfacet
facet normal -0.6774156093597412 0.735600471496582 8.823170364084202e-15
outer loop
vertex -0.11549422454833985 0.2128392333984375 -0.8300000000000001
vertex -0.11549422454833985 0.2128392333984375 -0.63
vertex -0.10794479370117188 0.21979151916503906 -0.8300000000000001
endloop
endfacet
facet normal -0.6774156093597412 0.735600471496582 8.992376206726563e-15
outer loop
vertex -0.10794479370117188 0.21979151916503906 -0.8300000000000001
vertex -0.11549422454833985 0.2128392333984375 -0.63
vertex -0.10794479370117188 0.21979151916503906 -0.63
endloop
endfacet
facet normal -0.6303731799125671 0.7762922048568726 9.18955446541905e-15
outer loop
vertex -0.10794479370117188 0.21979151916503906 -0.8300000000000001
vertex -0.10794479370117188 0.21979151916503906 -0.63
vertex -0.09997773742675782 0.22626100158691406 -0.8300000000000001
endloop
endfacet
facet normal -0.6303731799125671 0.7762922048568726 8.972237151372645e-15
outer loop
vertex -0.09997773742675782 0.22626100158691406 -0.8300000000000001
vertex -0.10794479370117188 0.21979151916503906 -0.63
vertex -0.09997773742675782 0.22626100158691406 -0.63
endloop
endfacet
facet normal -0.580892026424408 0.8139806389808655 9.094860417080755e-15
outer loop
vertex -0.09997773742675782 0.22626100158691406 -0.8300000000000001
vertex -0.09997773742675782 0.22626100158691406 -0.63
vertex -0.09162389373779298 0.23222267150878906 -0.8300000000000001
endloop
endfacet
facet normal -0.580892026424408 0.8139806389808655 9.086709419029327e-15
outer loop
vertex -0.09162389373779298 0.23222267150878906 -0.8300000000000001
vertex -0.09997773742675782 0.22626100158691406 -0.63
vertex -0.09162389373779298 0.23222267150878906 -0.63
endloop
endfacet
facet normal -0.5291634202003479 0.8485199213027954 9.190080472879295e-15
outer loop
vertex -0.09162389373779298 0.23222267150878906 -0.8300000000000001
vertex -0.09162389373779298 0.23222267150878906 -0.63
vertex -0.08291557312011719 0.23765345764160156 -0.8300000000000001
endloop
endfacet
facet normal -0.5291634202003479 0.8485199213027954 9.476628330803635e-15
outer loop
vertex -0.08291557312011719 0.23765345764160156 -0.8300000000000001
vertex -0.09162389373779298 0.23222267150878906 -0.63
vertex -0.08291557312011719 0.23765345764160156 -0.63
endloop
endfacet
facet normal -0.47538766264915466 0.8797764182090759 9.565412630268937e-15
outer loop
vertex -0.08291557312011719 0.23765345764160156 -0.8300000000000001
vertex -0.08291557312011719 0.23765345764160156 -0.63
vertex -0.07388646697998047 0.24253233337402344 -0.8300000000000001
endloop
endfacet
facet normal -0.47538766264915466 0.8797764182090759 9.4066108933177e-15
outer loop
vertex -0.07388646697998047 0.24253233337402344 -0.8300000000000001
vertex -0.08291557312011719 0.23765345764160156 -0.63
vertex -0.07388646697998047 0.24253233337402344 -0.63
endloop
endfacet
facet normal -0.4197726845741272 0.9076292514801025 9.458381547053883e-15
outer loop
vertex -0.07388646697998047 0.24253233337402344 -0.8300000000000001
vertex -0.07388646697998047 0.24253233337402344 -0.63
vertex -0.0645715103149414 0.24684043884277343 -0.8300000000000001
endloop
endfacet
facet normal -0.4197726845741272 0.9076292514801025 9.47853330790201e-15
outer loop
vertex -0.0645715103149414 0.24684043884277343 -0.8300000000000001
vertex -0.07388646697998047 0.24253233337402344 -0.63
vertex -0.0645715103149414 0.24684043884277343 -0.63
endloop
endfacet
facet normal -0.36253368854522705 0.9319706559181213 9.46991728876254e-15
outer loop
vertex -0.0645715103149414 0.24684043884277343 -0.8300000000000001
vertex -0.0645715103149414 0.24684043884277343 -0.63
vertex -0.05500673675537109 0.25056111145019533 -0.8300000000000001
endloop
endfacet
facet normal -0.36253368854522705 0.9319706559181213 9.46991728876254e-15
outer loop
vertex -0.05500673675537109 0.25056111145019533 -0.8300000000000001
vertex -0.0645715103149414 0.24684043884277343 -0.63
vertex -0.05500673675537109 0.25056111145019533 -0.63
endloop
endfacet
facet normal -0.3038921058177948 0.9527064561843872 9.424664553555478e-15
outer loop
vertex -0.05500673675537109 0.25056111145019533 -0.8300000000000001
vertex -0.05500673675537109 0.25056111145019533 -0.63
vertex -0.04522915267944336 0.2536799468994141 -0.8300000000000001
endloop
endfacet
facet normal -0.3038921058177948 0.9527064561843872 9.305903758086848e-15
outer loop
vertex -0.04522915267944336 0.2536799468994141 -0.8300000000000001
vertex -0.05500673675537109 0.25056111145019533 -0.63
vertex -0.04522915267944336 0.2536799468994141 -0.63
endloop
endfacet
facet normal -0.24407485127449036 0.9697564244270325 9.247565210877655e-15
outer loop
vertex -0.04522915267944336 0.2536799468994141 -0.8300000000000001
vertex -0.04522915267944336 0.2536799468994141 -0.63
vertex -0.03527658843994141 0.2561848754882813 -0.8300000000000001
endloop
endfacet
facet normal -0.24407485127449036 0.9697564244270325 9.385375777330035e-15
outer loop
vertex -0.03527658843994141 0.2561848754882813 -0.8300000000000001
vertex -0.04522915267944336 0.2536799468994141 -0.63
vertex -0.03527658843994141 0.2561848754882813 -0.63
endloop
endfacet
facet normal -0.1833133101463318 0.983054518699646 9.29314998300004e-15
outer loop
vertex -0.03527658843994141 0.2561848754882813 -0.8300000000000001
vertex -0.03527658843994141 0.2561848754882813 -0.63
vertex -0.025187543869018555 0.25806619262695313 -0.8300000000000001
endloop
endfacet
facet normal -0.1833133101463318 0.983054518699646 9.355019810566335e-15
outer loop
vertex -0.025187543869018555 0.25806619262695313 -0.8300000000000001
vertex -0.03527658843994141 0.2561848754882813 -0.63
vertex -0.025187543869018555 0.25806619262695313 -0.63
endloop
endfacet
facet normal -0.12184256315231323 0.9925494194030762 9.206093630747137e-15
outer loop
vertex -0.025187543869018555 0.25806619262695313 -0.8300000000000001
vertex -0.025187543869018555 0.25806619262695313 -0.63
vertex -0.01500105381011963 0.25931668090820315 -0.8300000000000001
endloop
endfacet
facet normal -0.12184256315231323 0.9925494194030762 9.221243662041727e-15
outer loop
vertex -0.01500105381011963 0.25931668090820315 -0.8300000000000001
vertex -0.025187543869018555 0.25806619262695313 -0.63
vertex -0.01500105381011963 0.25931668090820315 -0.63
endloop
endfacet
facet normal -0.0599004328250885 0.9982043504714966 9.028999370266997e-15
outer loop
vertex -0.01500105381011963 0.25931668090820315 -0.8300000000000001
vertex -0.01500105381011963 0.25931668090820315 -0.63
vertex -0.004756527423858643 0.25993142700195315 -0.8300000000000001
endloop
endfacet
facet normal -0.0599004328250885 0.9982043504714966 9.007717667467233e-15
outer loop
vertex -0.004756527423858643 0.25993142700195315 -0.8300000000000001
vertex -0.01500105381011963 0.25931668090820315 -0.63
vertex -0.004756527423858643 0.25993142700195315 -0.63
endloop
endfacet
facet normal 0.0022734415251761675 0.9999974370002747 8.802630662146232e-15
outer loop
vertex -0.004756527423858643 0.25993142700195315 -0.8300000000000001
vertex -0.004756527423858643 0.25993142700195315 -0.63
vertex 0.0055064005851745606 0.2599080810546875 -0.8300000000000001
endloop
endfacet
facet normal 0.0022734415251761675 0.9999974370002747 9.086038568935102e-15
outer loop
vertex 0.0055064005851745606 0.2599080810546875 -0.8300000000000001
vertex -0.004756527423858643 0.25993142700195315 -0.63
vertex 0.0055064005851745606 0.2599080810546875 -0.63
endloop
endfacet
facet normal 0.06443852186203003 0.9979217052459717 8.82421983790585e-15
outer loop
vertex 0.0055064005851745606 0.2599080810546875 -0.8300000000000001
vertex 0.0055064005851745606 0.2599080810546875 -0.63
vertex 0.015748024940490723 0.25924676513671874 -0.8300000000000001
endloop
endfacet
facet normal 0.06443852186203003 0.9979217052459717 8.543455520945362e-15
outer loop
vertex 0.015748024940490723 0.25924676513671874 -0.8300000000000001
vertex 0.0055064005851745606 0.2599080810546875 -0.63
vertex 0.015748024940490723 0.25924676513671874 -0.63
endloop
endfacet
facet normal 0.12635430693626404 0.9919852018356323 8.251933885554744e-15
outer loop
vertex 0.015748024940490723 0.25924676513671874 -0.8300000000000001
vertex 0.015748024940490723 0.25924676513671874 -0.63
vertex 0.02592872428894043 0.25794998168945316 -0.8300000000000001
endloop
endfacet
facet normal 0.12635430693626404 0.9919852018356323 8.30243568393594e-15
outer loop
vertex 0.02592872428894043 0.25794998168945316 -0.8300000000000001
vertex 0.015748024940490723 0.25924676513671874 -0.63
vertex 0.02592872428894043 0.25794998168945316 -0.63
endloop
endfacet
facet normal 0.18778124451637268 0.9822108745574951 8.003539779706526e-15
outer loop
vertex 0.02592872428894043 0.25794998168945316 -0.8300000000000001
vertex 0.02592872428894043 0.25794998168945316 -0.63
vertex 0.03600910949707031 0.25602279663085936 -0.8300000000000001
endloop
endfacet
facet normal 0.18778124451637268 0.9822108745574951 7.986861700975088e-15
outer loop
vertex 0.03600910949707031 0.25602279663085936 -0.8300000000000001
vertex 0.02592872428894043 0.25794998168945316 -0.63
vertex 0.03600910949707031 0.25602279663085936 -0.63
endloop
endfacet
facet normal 0.24848169088363647 0.9686365723609924 7.65161114264952e-15
outer loop
vertex 0.03600910949707031 0.25602279663085936 -0.8300000000000001
vertex 0.03600910949707031 0.25602279663085936 -0.63
vertex 0.045950183868408205 0.25347265625 -0.8300000000000001
endloop
endfacet
facet normal 0.24848169088363647 0.9686365723609924 7.718640247897542e-15
outer loop
vertex 0.045950183868408205 0.25347265625 -0.8300000000000001
vertex 0.03600910949707031 0.25602279663085936 -0.63
vertex 0.045950183868408205 0.25347265625 -0.63
endloop
endfacet
facet normal 0.3082208037376404 0.9513148665428162 7.334346481925949e-15
outer loop
vertex 0.045950183868408205 0.25347265625 -0.8300000000000001
vertex 0.045950183868408205 0.25347265625 -0.63
vertex 0.05571348571777344 0.2503093872070313 -0.8300000000000001
endloop
endfacet
facet normal 0.3082208037376404 0.9513148665428162 7.345296076835105e-15
outer loop
vertex 0.05571348571777344 0.2503093872070313 -0.8300000000000001
vertex 0.045950183868408205 0.25347265625 -0.63
vertex 0.05571348571777344 0.2503093872070313 -0.63
endloop
endfacet
facet normal 0.3667674958705902 0.9303126335144043 6.934707443565424e-15
outer loop
vertex 0.05571348571777344 0.2503093872070313 -0.8300000000000001
vertex 0.05571348571777344 0.2503093872070313 -0.63
vertex 0.06526123809814453 0.24654527282714844 -0.8300000000000001
endloop
endfacet
facet normal 0.3667674958705902 0.9303126335144043 6.761508264093233e-15
outer loop
vertex 0.06526123809814453 0.24654527282714844 -0.8300000000000001
vertex 0.05571348571777344 0.2503093872070313 -0.63
vertex 0.06526123809814453 0.24654527282714844 -0.63
endloop
endfacet
facet normal 0.4238952100276947 0.9057112336158752 6.345289402823152e-15
outer loop
vertex 0.06526123809814453 0.24654527282714844 -0.8300000000000001
vertex 0.06526123809814453 0.24654527282714844 -0.63
vertex 0.07455651092529297 0.24219485473632812 -0.8300000000000001
endloop
endfacet
facet normal 0.4238952100276947 0.9057112336158752 6.610939263872835e-15
outer loop
vertex 0.07455651092529297 0.24219485473632812 -0.8300000000000001
vertex 0.06526123809814453 0.24654527282714844 -0.63
vertex 0.07455651092529297 0.24219485473632812 -0.63
endloop
endfacet
facet normal 0.4793829619884491 0.8776057958602905 6.142419082725116e-15
outer loop
vertex 0.07455651092529297 0.24219485473632812 -0.8300000000000001
vertex 0.07455651092529297 0.24219485473632812 -0.63
vertex 0.08356333923339844 0.2372749786376953 -0.8300000000000001
endloop
endfacet
facet normal 0.4793829619884491 0.8776057958602905 6.188014866275815e-15
outer loop
vertex 0.08356333923339844 0.2372749786376953 -0.8300000000000001
vertex 0.07455651092529297 0.24219485473632812 -0.63
vertex 0.08356333923339844 0.2372749786376953 -0.63
endloop
endfacet
facet normal 0.5330160856246948 0.8461050987243652 5.719261751067602e-15
outer loop
vertex 0.08356333923339844 0.2372749786376953 -0.8300000000000001
vertex 0.08356333923339844 0.2372749786376953 -0.63
vertex 0.09224687957763672 0.2318046569824219 -0.8300000000000001
endloop
endfacet
facet normal 0.5330160856246948 0.8461050987243652 5.529896524280589e-15
outer loop
vertex 0.09224687957763672 0.2318046569824219 -0.8300000000000001
vertex 0.08356333923339844 0.2372749786376953 -0.63
vertex 0.09224687957763672 0.2318046569824219 -0.63
endloop
endfacet
facet normal 0.584587037563324 0.8113309741020203 5.020695044742141e-15
outer loop
vertex 0.09224687957763672 0.2318046569824219 -0.8300000000000001
vertex 0.09224687957763672 0.2318046569824219 -0.63
vertex 0.10057353210449219 0.22580506896972657 -0.8300000000000001
endloop
endfacet
facet normal 0.584587037563324 0.8113309741020203 4.956250660532666e-15
outer loop
vertex 0.10057353210449219 0.22580506896972657 -0.8300000000000001
vertex 0.09224687957763672 0.2318046569824219 -0.63
vertex 0.10057353210449219 0.22580506896972657 -0.63
endloop
endfacet
facet normal 0.6338964104652405 0.7734179496765137 4.452415134715074e-15
outer loop
vertex 0.10057353210449219 0.22580506896972657 -0.8300000000000001
vertex 0.10057353210449219 0.22580506896972657 -0.63
vertex 0.1085110855102539 0.21929940795898437 -0.8300000000000001
endloop
endfacet
facet normal 0.6338964104652405 0.7734179496765137 4.497456111685321e-15
outer loop
vertex 0.1085110855102539 0.21929940795898437 -0.8300000000000001
vertex 0.10057353210449219 0.22580506896972657 -0.63
vertex 0.1085110855102539 0.21929940795898437 -0.63
endloop
endfacet
facet normal 0.6807532906532288 0.7325127720832825 3.979724586851549e-15
outer loop
vertex 0.1085110855102539 0.21929940795898437 -0.8300000000000001
vertex 0.1085110855102539 0.21929940795898437 -0.63
vertex 0.1160288314819336 0.2123128662109375 -0.8300000000000001
endloop
endfacet
facet normal 0.6807532906532288 0.7325127720832825 4.098531969132279e-15
outer loop
vertex 0.1160288314819336 0.2123128662109375 -0.8300000000000001
vertex 0.1085110855102539 0.21929940795898437 -0.63
vertex 0.1160288314819336 0.2123128662109375 -0.63
endloop
endfacet
facet normal 0.7249764800071716 0.6887736320495605 3.5341875859363917e-15
outer loop
vertex 0.1160288314819336 0.2123128662109375 -0.8300000000000001
vertex 0.1160288314819336 0.2123128662109375 -0.63
vertex 0.12309768676757812 0.20487246704101564 -0.8300000000000001
endloop
endfacet
facet normal 0.7249764800071716 0.6887736320495605 3.4929643982176562e-15
outer loop
vertex 0.12309768676757812 0.20487246704101564 -0.8300000000000001
vertex 0.1160288314819336 0.2123128662109375 -0.63
vertex 0.12309768676757812 0.20487246704101564 -0.63
endloop
endfacet
facet normal 0.7663949131965637 0.6423697471618652 2.936964348343408e-15
outer loop
vertex 0.12309768676757812 0.20487246704101564 -0.8300000000000001
vertex 0.12309768676757812 0.20487246704101564 -0.63
vertex 0.12969029235839843 0.19700698852539064 -0.8300000000000001
endloop
endfacet
facet normal 0.7663949131965637 0.6423697471618652 2.90171443696871e-15
outer loop
vertex 0.12969029235839843 0.19700698852539064 -0.8300000000000001
vertex 0.12309768676757812 0.20487246704101564 -0.63
vertex 0.12969029235839843 0.19700698852539064 -0.63
endloop
endfacet
facet normal 0.8048482537269592 0.59348064661026 2.3095276572801006e-15
outer loop
vertex 0.12969029235839843 0.19700698852539064 -0.8300000000000001
vertex 0.12969029235839843 0.19700698852539064 -0.63
vertex 0.13578115844726563 0.1887468719482422 -0.8300000000000001
endloop
endfacet
facet normal 0.8048482537269592 0.59348064661026 2.423903574939033e-15
outer loop
vertex 0.13578115844726563 0.1887468719482422 -0.8300000000000001
vertex 0.12969029235839843 0.19700698852539064 -0.63
vertex 0.13578115844726563 0.1887468719482422 -0.63
endloop
endfacet
facet normal 0.8401878476142883 0.5422954559326172 1.8278037147923453e-15
outer loop
vertex 0.13578115844726563 0.1887468719482422 -0.8300000000000001
vertex 0.13578115844726563 0.1887468719482422 -0.63
vertex 0.14134671020507814 0.1801240692138672 -0.8300000000000001
endloop
endfacet
facet normal 0.8401878476142883 0.5422954559326172 1.5966093540919547e-15
outer loop
vertex 0.14134671020507814 0.1801240692138672 -0.8300000000000001
vertex 0.13578115844726563 0.1887468719482422 -0.63
vertex 0.14134671020507814 0.1801240692138672 -0.63
endloop
endfacet
facet normal 0.8722769021987915 0.4890122711658478 1.0161541924810541e-15
outer loop
vertex 0.14134671020507814 0.1801240692138672 -0.8300000000000001
vertex 0.14134671020507814 0.1801240692138672 -0.63
vertex 0.14636541748046875 0.1711719207763672 -0.8300000000000001
endloop
endfacet
facet normal 0.8722769021987915 0.4890122711658478 1.2941254182979715e-15
outer loop
vertex 0.14636541748046875 0.1711719207763672 -0.8300000000000001
vertex 0.14134671020507814 0.1801240692138672 -0.63
vertex 0.14636541748046875 0.1711719207763672 -0.63
endloop
endfacet
facet normal 0.9009912610054016 0.4338371753692627 6.783756113848459e-16
outer loop
vertex 0.14636541748046875 0.1711719207763672 -0.8300000000000001
vertex 0.14636541748046875 0.1711719207763672 -0.63
vertex 0.15081787109375 0.1619250946044922 -0.8300000000000001
endloop
endfacet
facet normal 0.9009912610054016 0.4338371753692627 7.447621892028161e-16
outer loop
vertex 0.15081787109375 0.1619250946044922 -0.8300000000000001
vertex 0.14636541748046875 0.1711719207763672 -0.63
vertex 0.15081787109375 0.1619250946044922 -0.63
endloop
endfacet
facet normal 0.9262198805809021 0.3769836723804474 1.3805239435882126e-16
outer loop
vertex 0.15081787109375 0.1619250946044922 -0.8300000000000001
vertex 0.15081787109375 0.1619250946044922 -0.63
vertex 0.15468684387207032 0.15241934204101562 -0.8300000000000001
endloop
endfacet
facet normal 0.9262198805809021 0.3769836723804474 3.090718668901515e-17
outer loop
vertex 0.15468684387207032 0.15241934204101562 -0.8300000000000001
vertex 0.15081787109375 0.1619250946044922 -0.63
vertex 0.15468684387207032 0.15241934204101562 -0.63
endloop
endfacet
facet normal 0.9478651881217957 0.31867167353630066 -5.597634172588989e-16
outer loop
vertex 0.15468684387207032 0.15241934204101562 -0.8300000000000001
vertex 0.15468684387207032 0.15241934204101562 -0.63
vertex 0.1579573516845703 0.14269143676757812 -0.8300000000000001
endloop
endfacet
facet normal 0.9478651881217957 0.31867167353630066 -6.03891239772447e-16
outer loop
vertex 0.1579573516845703 0.14269143676757812 -0.8300000000000001
vertex 0.15468684387207032 0.15241934204101562 -0.63
vertex 0.1579573516845703 0.14269143676757812 -0.63
endloop
endfacet
facet normal 0.9658433198928833 0.25912681221961975 -1.2118748133504347e-15
outer loop
vertex 0.1579573516845703 0.14269143676757812 -0.8300000000000001
vertex 0.1579573516845703 0.14269143676757812 -0.63
vertex 0.16061676025390625 0.13277903747558595 -0.8300000000000001
endloop
endfacet
facet normal 0.9658433198928833 0.25912681221961975 -1.1114443402559788e-15
outer loop
vertex 0.16061676025390625 0.13277903747558595 -0.8300000000000001
vertex 0.1579573516845703 0.14269143676757812 -0.63
vertex 0.16061676025390625 0.13277903747558595 -0.63
endloop
endfacet
facet normal 0.9800847768783569 0.19857941567897797 -1.7041111758674446e-15
outer loop
vertex 0.16061676025390625 0.13277903747558595 -0.8300000000000001
vertex 0.16061676025390625 0.13277903747558595 -0.63
vertex 0.16265476989746094 0.12272047424316407 -0.8300000000000001
endloop
endfacet
facet normal 0.9800847768783569 0.19857941567897797 -1.7323310314172873e-15
outer loop
vertex 0.16265476989746094 0.12272047424316407 -0.8300000000000001
vertex 0.16061676025390625 0.13277903747558595 -0.63
vertex 0.16265476989746094 0.12272047424316407 -0.63
endloop
endfacet
facet normal 0.9905345439910889 0.13726377487182617 -2.3096915581553943e-15
outer loop
vertex 0.16265476989746094 0.12272047424316407 -0.8300000000000001
vertex 0.16265476989746094 0.12272047424316407 -0.63
vertex 0.16406350708007814 0.1125546646118164 -0.8300000000000001
endloop
endfacet
facet normal 0.9905345439910889 0.13726377487182617 -2.260925753799596e-15
outer loop
vertex 0.16406350708007814 0.1125546646118164 -0.8300000000000001
vertex 0.16265476989746094 0.12272047424316407 -0.63
vertex 0.16406350708007814 0.1125546646118164 -0.63
endloop
endfacet
facet normal 0.9971520900726318 0.07541707158088684 -2.851322752870657e-15
outer loop
vertex 0.16406350708007814 0.1125546646118164 -0.8300000000000001
vertex 0.16406350708007814 0.1125546646118164 -0.63
vertex 0.16483750915527345 0.10232093811035156 -0.8300000000000001
endloop
endfacet
facet normal 0.9971520900726318 0.07541707158088684 -2.7203363073578313e-15
outer loop
vertex 0.16483750915527345 0.10232093811035156 -0.8300000000000001
vertex 0.16406350708007814 0.1125546646118164 -0.63
vertex 0.16483750915527345 0.10232093811035156 -0.63
endloop
endfacet
facet normal 0.9999118447303772 0.013278605416417122 -3.290479689868858e-15
outer loop
vertex 0.16483750915527345 0.10232093811035156 -0.8300000000000001
vertex 0.16483750915527345 0.10232093811035156 -0.63
vertex 0.16497378540039062 0.09205888366699219 -0.8300000000000001
endloop
endfacet
facet normal 0.9999118447303772 0.013278605416417122 -3.4382367524626086e-15
outer loop
vertex 0.16497378540039062 0.09205888366699219 -0.8300000000000001
vertex 0.16483750915527345 0.10232093811035156 -0.63
vertex 0.16497378540039062 0.09205888366699219 -0.63
endloop
endfacet
facet normal 0.9988031387329102 -0.048911236226558685 -3.968979126882681e-15
outer loop
vertex 0.16497378540039062 0.09205888366699219 -0.8300000000000001
vertex 0.16497378540039062 0.09205888366699219 -0.63
vertex 0.16447181701660157 0.08180821228027343 -0.8300000000000001
endloop
endfacet
facet normal 0.9988031387329102 -0.048911236226558685 -4.1421956705302906e-15
outer loop
vertex 0.16447181701660157 0.08180821228027343 -0.8300000000000001
vertex 0.16497378540039062 0.09205888366699219 -0.63
vertex 0.16447181701660157 0.08180821228027343 -0.63
endloop
endfacet
facet normal 0.9938302636146545 -0.11091185361146927 -4.6965249479160795e-15
outer loop
vertex 0.16447181701660157 0.08180821228027343 -0.8300000000000001
vertex 0.16447181701660157 0.08180821228027343 -0.63
vertex 0.16333352661132813 0.07160858154296876 -0.8300000000000001
endloop
endfacet
facet normal 0.9938302636146545 -0.11091185361146927 -4.508008871658689e-15
outer loop
vertex 0.16333352661132813 0.07160858154296876 -0.8300000000000001
vertex 0.16447181701660157 0.08180821228027343 -0.63
vertex 0.16333352661132813 0.07160858154296876 -0.63
endloop
endfacet
facet normal 0.985012412071228 -0.17248336970806122 -5.019171655986504e-15
outer loop
vertex 0.16333352661132813 0.07160858154296876 -0.8300000000000001
vertex 0.16333352661132813 0.07160858154296876 -0.63
vertex 0.16156333923339844 0.06149944305419922 -0.8300000000000001
endloop
endfacet
facet normal 0.985012412071228 -0.17248336970806122 -4.867898771386938e-15
outer loop
vertex 0.16156333923339844 0.06149944305419922 -0.8300000000000001
vertex 0.16333352661132813 0.07160858154296876 -0.63
vertex 0.16156333923339844 0.06149944305419922 -0.63
endloop
endfacet
facet normal 0.9723837971687317 -0.23338758945465088 -5.408671709968395e-15
outer loop
vertex 0.16156333923339844 0.06149944305419922 -0.8300000000000001
vertex 0.16156333923339844 0.06149944305419922 -0.63
vertex 0.1591680908203125 0.051519912719726564 -0.8300000000000001
endloop
endfacet
facet normal 0.9723837971687317 -0.23338758945465088 -5.447356551702446e-15
outer loop
vertex 0.1591680908203125 0.051519912719726564 -0.8300000000000001
vertex 0.16156333923339844 0.06149944305419922 -0.63
vertex 0.1591680908203125 0.051519912719726564 -0.63
endloop
endfacet
facet normal 0.9559931755065918 -0.29338887333869934 -5.939294652742904e-15
outer loop
vertex 0.1591680908203125 0.051519912719726564 -0.8300000000000001
vertex 0.1591680908203125 0.051519912719726564 -0.63
vertex 0.1561570587158203 0.041708595275878904 -0.8300000000000001
endloop
endfacet
facet normal 0.9559931755065918 -0.29338887333869934 -5.845485330318017e-15
outer loop
vertex 0.1561570587158203 0.041708595275878904 -0.8300000000000001
vertex 0.1591680908203125 0.051519912719726564 -0.63
vertex 0.1561570587158203 0.041708595275878904 -0.63
endloop
endfacet
facet normal 0.9359040260314941 -0.35225507616996765 -6.295623625960896e-15
outer loop
vertex 0.1561570587158203 0.041708595275878904 -0.8300000000000001
vertex 0.1561570587158203 0.041708595275878904 -0.63
vertex 0.15254188537597657 0.032103454589843754 -0.8300000000000001
endloop
endfacet
facet normal 0.9359040260314941 -0.35225507616996765 -6.262740536399063e-15
outer loop
vertex 0.15254188537597657 0.032103454589843754 -0.8300000000000001
vertex 0.1561570587158203 0.041708595275878904 -0.63
vertex 0.15254188537597657 0.032103454589843754 -0.63
endloop
endfacet
facet normal 0.9121940732002258 -0.4097585082054138 -6.708234973908621e-15
outer loop
vertex 0.15254188537597657 0.032103454589843754 -0.8300000000000001
vertex 0.15254188537597657 0.032103454589843754 -0.63
vertex 0.1483365478515625 0.02274164962768555 -0.8300000000000001
endloop
endfacet
facet normal 0.9121940732002258 -0.4097585082054138 -6.84375685733752e-15
outer loop
vertex 0.1483365478515625 0.02274164962768555 -0.8300000000000001
vertex 0.15254188537597657 0.032103454589843754 -0.63
vertex 0.1483365478515625 0.02274164962768555 -0.63
endloop
endfacet
facet normal 0.8849549293518066 -0.4656766355037689 -7.238670722401787e-15
outer loop
vertex 0.1483365478515625 0.02274164962768555 -0.8300000000000001
vertex 0.1483365478515625 0.02274164962768555 -0.63
vertex 0.14355732727050782 0.013659397125244142 -0.8300000000000001
endloop
endfacet
facet normal 0.8849549293518066 -0.4656766355037689 -7.238670722401787e-15
outer loop
vertex 0.14355732727050782 0.013659397125244142 -0.8300000000000001
vertex 0.1483365478515625 0.02274164962768555 -0.63
vertex 0.14355732727050782 0.013659397125244142 -0.63
endloop
endfacet
facet normal 0.8542921543121338 -0.5197931528091431 -7.605579137130985e-15
outer loop
vertex 0.14355732727050782 0.013659397125244142 -0.8300000000000001
vertex 0.14355732727050782 0.013659397125244142 -0.63
vertex 0.13822271728515625 0.004891835689544678 -0.8300000000000001
endloop
endfacet
facet normal 0.8542921543121338 -0.5197931528091431 -7.402956997686495e-15
outer loop
vertex 0.13822271728515625 0.004891835689544678 -0.8300000000000001
vertex 0.14355732727050782 0.013659397125244142 -0.63
vertex 0.13822271728515625 0.004891835689544678 -0.63
endloop
endfacet
facet normal 0.8203242421150208 -0.5718986988067627 -7.771119868210576e-15
outer loop
vertex 0.13822271728515625 0.004891835689544678 -0.8300000000000001
vertex 0.13822271728515625 0.004891835689544678 -0.63
vertex 0.1323533477783203 -0.0035271148681640624 -0.8300000000000001
endloop
endfacet
facet normal 0.8203242421150208 -0.5718986988067627 -7.826487870873748e-15
outer loop
vertex 0.1323533477783203 -0.0035271148681640624 -0.8300000000000001
vertex 0.13822271728515625 0.004891835689544678 -0.63
vertex 0.1323533477783203 -0.0035271148681640624 -0.63
endloop
endfacet
facet normal 0.783182680606842 -0.621791660785675 -8.138520409082129e-15
outer loop
vertex 0.1323533477783203 -0.0035271148681640624 -0.8300000000000001
vertex 0.1323533477783203 -0.0035271148681640624 -0.63
vertex 0.125971923828125 -0.011564883232116699 -0.8300000000000001
endloop
endfacet
facet normal 0.783182680606842 -0.621791660785675 -8.249817150219555e-15
outer loop
vertex 0.125971923828125 -0.011564883232116699 -0.8300000000000001
vertex 0.1323533477783203 -0.0035271148681640624 -0.63
vertex 0.125971923828125 -0.011564883232116699 -0.63
endloop
endfacet
facet normal 0.7430111169815063 -0.6692790389060974 -8.524653930615158e-15
outer loop
vertex 0.125971923828125 -0.011564883232116699 -0.8300000000000001
vertex 0.125971923828125 -0.011564883232116699 -0.63
vertex 0.11910314178466797 -0.019190372467041018 -0.8300000000000001
endloop
endfacet
facet normal 0.7430111169815063 -0.6692790389060974 -8.456143364742388e-15
outer loop
vertex 0.11910314178466797 -0.019190372467041018 -0.8300000000000001
vertex 0.125971923828125 -0.011564883232116699 -0.63
vertex 0.11910314178466797 -0.019190372467041018 -0.63
endloop
endfacet
facet normal 0.6999650001525879 -0.714177131652832 -8.719804392431918e-15
outer loop
vertex 0.11910314178466797 -0.019190372467041018 -0.8300000000000001
vertex 0.11910314178466797 -0.019190372467041018 -0.63
vertex 0.11177357482910157 -0.026374080657958984 -0.8300000000000001
endloop
endfacet
facet normal 0.6999650001525879 -0.714177131652832 -8.766510636176467e-15
outer loop
vertex 0.11177357482910157 -0.026374080657958984 -0.8300000000000001
vertex 0.11910314178466797 -0.019190372467041018 -0.63
vertex 0.11177357482910157 -0.026374080657958984 -0.63
endloop
endfacet
facet normal 0.6542108654975891 -0.7563121914863586 -8.974451295496767e-15
outer loop
vertex 0.11177357482910157 -0.026374080657958984 -0.8300000000000001
vertex 0.11177357482910157 -0.026374080657958984 -0.63
vertex 0.10401158142089843 -0.033088218688964846 -0.8300000000000001
endloop
endfacet
facet normal 0.6542108654975891 -0.7563121914863586 -8.89491744284843e-15
outer loop
vertex 0.10401158142089843 -0.033088218688964846 -0.8300000000000001
vertex 0.11177357482910157 -0.026374080657958984 -0.63
vertex 0.10401158142089843 -0.033088218688964846 -0.63
endloop
endfacet
facet normal 0.6059256792068481 -0.7955212593078613 -9.075696296649127e-15
outer loop
vertex 0.10401158142089843 -0.033088218688964846 -0.8300000000000001
vertex 0.10401158142089843 -0.033088218688964846 -0.63
vertex 0.09584718322753906 -0.03930680465698242 -0.8300000000000001
endloop
endfacet
facet normal 0.6059256792068481 -0.7955212593078613 -9.116110779661471e-15
outer loop
vertex 0.09584718322753906 -0.03930680465698242 -0.8300000000000001
vertex 0.10401158142089843 -0.033088218688964846 -0.63
vertex 0.09584718322753906 -0.03930680465698242 -0.63
endloop
endfacet
facet normal 0.5552963018417358 -0.8316525816917419 -9.280271694069985e-15
outer loop
vertex 0.09584718322753906 -0.03930680465698242 -0.8300000000000001
vertex 0.09584718322753906 -0.03930680465698242 -0.63
vertex 0.08731196594238282 -0.04500578689575195 -0.8300000000000001
endloop
endfacet
facet normal 0.5552963018417358 -0.8316525816917419 -9.270729020886218e-15
outer loop
vertex 0.08731196594238282 -0.04500578689575195 -0.8300000000000001
vertex 0.09584718322753906 -0.03930680465698242 -0.63
vertex 0.08731196594238282 -0.04500578689575195 -0.63
endloop
endfacet
facet normal 0.5025185942649841 -0.8645663857460022 -9.37205025500383e-15
outer loop
vertex 0.08731196594238282 -0.04500578689575195 -0.8300000000000001
vertex 0.08731196594238282 -0.04500578689575195 -0.63
vertex 0.07843896484375 -0.05016311264038086 -0.8300000000000001
endloop
endfacet
facet normal 0.5025185942649841 -0.8645663857460022 -9.280675728785825e-15
outer loop
vertex 0.07843896484375 -0.05016311264038086 -0.8300000000000001
vertex 0.08731196594238282 -0.04500578689575195 -0.63
vertex 0.07843896484375 -0.05016311264038086 -0.63
endloop
endfacet
facet normal 0.4477967619895935 -0.8941353559494019 -9.373269982447877e-15
outer loop
vertex 0.07843896484375 -0.05016311264038086 -0.8300000000000001
vertex 0.07843896484375 -0.05016311264038086 -0.63
vertex 0.06926248931884765 -0.054758831024169924 -0.8300000000000001
endloop
endfacet
facet normal 0.4477967619895935 -0.8941353559494019 -9.341503705826999e-15
outer loop
vertex 0.06926248931884765 -0.054758831024169924 -0.8300000000000001
vertex 0.07843896484375 -0.05016311264038086 -0.63
vertex 0.06926248931884765 -0.054758831024169924 -0.63
endloop
endfacet
facet normal -6.004784910884002e-16 -2.641268280478837e-13 -1
outer loop
vertex 0.050142200469970706 -0.062196563720703125 -0.8300000000000001
vertex -0.050856433868408206 -0.06196694946289063 -0.8300000000000001
vertex 0.059818058013916015 -0.058775161743164064 -0.8300000000000001
endloop
endfacet
facet normal -7.606247446126368e-15 -2.1203514882469146e-14 -1
outer loop
vertex 0.059818058013916015 -0.058775161743164064 -0.8300000000000001
vertex -0.050856433868408206 -0.06196694946289063 -0.8300000000000001
vertex -0.06051663589477539 -0.0585015869140625 -0.8300000000000001
endloop
endfacet
facet normal -7.00576884915885e-15 2.429233301060735e-13 -1
outer loop
vertex 0.059818058013916015 -0.058775161743164064 -0.8300000000000001
vertex -0.06051663589477539 -0.0585015869140625 -0.8300000000000001
vertex 0.06926248931884765 -0.054758831024169924 -0.8300000000000001
endloop
endfacet
facet normal 0 0 -1
outer loop
vertex 0.06926248931884765 -0.054758831024169924 -0.8300000000000001
vertex -0.06051663589477539 -0.0585015869140625 -0.8300000000000001
vertex -0.06994271087646485 -0.054442356109619144 -0.8300000000000001
endloop
endfacet
facet normal 0 0 -1
outer loop
vertex 0.06926248931884765 -0.054758831024169924 -0.8300000000000001
vertex -0.06994271087646485 -0.054442356109619144 -0.8300000000000001
vertex 0.07843896484375 -0.05016311264038086 -0.8300000000000001
endloop
endfacet
facet normal 0 0 -1
outer loop
vertex 0.07843896484375 -0.05016311264038086 -0.8300000000000001
vertex -0.06994271087646485 -0.054442356109619144 -0.8300000000000001
vertex -0.0790981903076172 -0.04980495834350586 -0.8300000000000001
endloop
endfacet
facet normal 0 0 -1
outer loop
vertex 0.07843896484375 -0.05016311264038086 -0.8300000000000001
vertex -0.0790981903076172 -0.04980495834350586 -0.8300000000000001
vertex 0.08731196594238282 -0.04500578689575195 -0.8300000000000001
endloop
endfacet
facet normal 0 0 -1
outer loop
vertex 0.08731196594238282 -0.04500578689575195 -0.8300000000000001
vertex -0.0790981903076172 -0.04980495834350586 -0.8300000000000001
vertex -0.0879476547241211 -0.044607341766357424 -0.8300000000000001
endloop
endfacet
facet normal 0 0 -1
outer loop
vertex 0.08731196594238282 -0.04500578689575195 -0.8300000000000001
vertex -0.0879476547241211 -0.044607341766357424 -0.8300000000000001
vertex 0.09584718322753906 -0.03930680465698242 -0.8300000000000001
endloop
endfacet
facet normal 0 0 -1
outer loop
vertex 0.09584718322753906 -0.03930680465698242 -0.8300000000000001
vertex -0.0879476547241211 -0.044607341766357424 -0.8300000000000001
vertex -0.09645686340332031 -0.038869613647460936 -0.8300000000000001
endloop
endfacet
facet normal 0 0 -1
outer loop
vertex 0.09584718322753906 -0.03930680465698242 -0.8300000000000001
vertex -0.09645686340332031 -0.038869613647460936 -0.8300000000000001
vertex 0.10401158142089843 -0.033088218688964846 -0.8300000000000001
endloop
endfacet
facet normal 0 0 -1
outer loop
vertex 0.10401158142089843 -0.033088218688964846 -0.8300000000000001
vertex -0.09645686340332031 -0.038869613647460936 -0.8300000000000001
vertex -0.10459290313720704 -0.032613967895507814 -0.8300000000000001
endloop
endfacet
facet normal 0 0 -1
outer loop
vertex 0.10401158142089843 -0.033088218688964846 -0.8300000000000001
vertex -0.10459290313720704 -0.032613967895507814 -0.8300000000000001
vertex 0.11177357482910157 -0.026374080657958984 -0.8300000000000001
endloop
endfacet
facet normal 0 0 -1
outer loop
vertex 0.11177357482910157 -0.026374080657958984 -0.8300000000000001
vertex -0.10459290313720704 -0.032613967895507814 -0.8300000000000001
vertex -0.11232429504394531 -0.025864606857299806 -0.8300000000000001
endloop
endfacet
facet normal 0 0 -1
outer loop
vertex 0.11177357482910157 -0.026374080657958984 -0.8300000000000001
vertex -0.11232429504394531 -0.025864606857299806 -0.8300000000000001
vertex 0.11910314178466797 -0.019190372467041018 -0.8300000000000001
endloop
endfacet
facet normal 0 0 -1
outer loop
vertex 0.11910314178466797 -0.019190372467041018 -0.8300000000000001
vertex -0.11232429504394531 -0.025864606857299806 -0.8300000000000001
vertex -0.11962112426757812 -0.018647645950317385 -0.8300000000000001
endloop
endfacet
facet normal 0 0 -1
outer loop
vertex 0.11910314178466797 -0.019190372467041018 -0.8300000000000001
vertex -0.11962112426757812 -0.018647645950317385 -0.8300000000000001
vertex 0.125971923828125 -0.011564883232116699 -0.8300000000000001
endloop
endfacet
facet normal 0 0 -1
outer loop
vertex 0.125971923828125 -0.011564883232116699 -0.8300000000000001
vertex -0.11962112426757812 -0.018647645950317385 -0.8300000000000001
vertex -0.12645516204833984 -0.010991003036499023 -0.8300000000000001
endloop
endfacet
facet normal 0 0 -1
outer loop
vertex 0.125971923828125 -0.011564883232116699 -0.8300000000000001
vertex -0.12645516204833984 -0.010991003036499023 -0.8300000000000001
vertex 0.1323533477783203 -0.0035271148681640624 -0.8300000000000001
endloop
endfacet
facet normal 0 0 -1
outer loop
vertex 0.1323533477783203 -0.0035271148681640624 -0.8300000000000001
vertex -0.12645516204833984 -0.010991003036499023 -0.8300000000000001
vertex -0.1327999725341797 -0.0029243028163909914 -0.8300000000000001
endloop
endfacet
facet normal 0 0 -1
outer loop
vertex 0.1323533477783203 -0.0035271148681640624 -0.8300000000000001
vertex -0.1327999725341797 -0.0029243028163909914 -0.8300000000000001
vertex 0.13822271728515625 0.004891835689544678 -0.8300000000000001
endloop
endfacet
facet normal 0 0 -1
outer loop
vertex 0.13822271728515625 0.004891835689544678 -0.8300000000000001
vertex -0.1327999725341797 -0.0029243028163909914 -0.8300000000000001
vertex -0.13863099670410156 0.0055212478637695316 -0.8300000000000001
endloop
endfacet
facet normal 0 0 -1
outer loop
vertex 0.13822271728515625 0.004891835689544678 -0.8300000000000001
vertex -0.13863099670410156 0.0055212478637695316 -0.8300000000000001
vertex 0.14355732727050782 0.013659397125244142 -0.8300000000000001
endloop
endfacet
facet normal 0 0 -1
outer loop
vertex 0.14355732727050782 0.013659397125244142 -0.8300000000000001
vertex -0.13863099670410156 0.0055212478637695316 -0.8300000000000001
vertex -0.14392568969726563 0.01431297492980957 -0.8300000000000001
endloop
endfacet
facet normal 0 0 -1
outer loop
vertex 0.14355732727050782 0.013659397125244142 -0.8300000000000001
vertex -0.14392568969726563 0.01431297492980957 -0.8300000000000001
vertex 0.1483365478515625 0.02274164962768555 -0.8300000000000001
endloop
endfacet
facet normal 0 0 -1
outer loop
vertex 0.1483365478515625 0.02274164962768555 -0.8300000000000001
vertex -0.14392568969726563 0.01431297492980957 -0.8300000000000001
vertex -0.14866355895996095 0.023416864395141603 -0.8300000000000001
endloop
endfacet
facet normal 0 0 -1
outer loop
vertex 0.1483365478515625 0.02274164962768555 -0.8300000000000001
vertex -0.14866355895996095 0.023416864395141603 -0.8300000000000001
vertex 0.15254188537597657 0.032103454589843754 -0.8300000000000001
endloop
endfacet
facet normal 0 0 -1
outer loop
vertex 0.15254188537597657 0.032103454589843754 -0.8300000000000001
vertex -0.14866355895996095 0.023416864395141603 -0.8300000000000001
vertex -0.15282627868652343 0.03279769515991211 -0.8300000000000001
endloop
endfacet
facet normal 0 0 -1
outer loop
vertex 0.15254188537597657 0.032103454589843754 -0.8300000000000001
vertex -0.15282627868652343 0.03279769515991211 -0.8300000000000001
vertex 0.1561570587158203 0.041708595275878904 -0.8300000000000001
endloop
endfacet
facet normal 0 0 -1
outer loop
vertex 0.1561570587158203 0.041708595275878904 -0.8300000000000001
vertex -0.15282627868652343 0.03279769515991211 -0.8300000000000001
vertex -0.1563977508544922 0.04241917419433594 -0.8300000000000001
endloop
endfacet
facet normal 0 0 -1
outer loop
vertex 0.1561570587158203 0.041708595275878904 -0.8300000000000001
vertex -0.1563977508544922 0.04241917419433594 -0.8300000000000001
vertex 0.1591680908203125 0.051519912719726564 -0.8300000000000001
endloop
endfacet
facet normal 0 0 -1
outer loop
vertex 0.1591680908203125 0.051519912719726564 -0.8300000000000001
vertex -0.1563977508544922 0.04241917419433594 -0.8300000000000001
vertex -0.15936415100097656 0.05224407577514648 -0.8300000000000001
endloop
endfacet
facet normal 0 0 -1
outer loop
vertex 0.1591680908203125 0.051519912719726564 -0.8300000000000001
vertex -0.15936415100097656 0.05224407577514648 -0.8300000000000001
vertex 0.16156333923339844 0.06149944305419922 -0.8300000000000001
endloop
endfacet
facet normal 0 0 -1
outer loop
vertex 0.16156333923339844 0.06149944305419922 -0.8300000000000001
vertex -0.15936415100097656 0.05224407577514648 -0.8300000000000001
vertex -0.1617139892578125 0.06223439407348633 -0.8300000000000001
endloop
endfacet
facet normal 0 0 -1
outer loop
vertex 0.16156333923339844 0.06149944305419922 -0.8300000000000001
vertex -0.1617139892578125 0.06223439407348633 -0.8300000000000001
vertex 0.16333352661132813 0.07160858154296876 -0.8300000000000001
endloop
endfacet
facet normal 0 0 -1
outer loop
vertex 0.16333352661132813 0.07160858154296876 -0.8300000000000001
vertex -0.1617139892578125 0.06223439407348633 -0.8300000000000001
vertex -0.16343820190429686 0.07235147857666016 -0.8300000000000001
endloop
endfacet
facet normal 0 0 -1
outer loop
vertex 0.16333352661132813 0.07160858154296876 -0.8300000000000001
vertex -0.16343820190429686 0.07235147857666016 -0.8300000000000001
vertex 0.16447181701660157 0.08180821228027343 -0.8300000000000001
endloop
endfacet
facet normal 0 0 -1
outer loop
vertex 0.16447181701660157 0.08180821228027343 -0.8300000000000001
vertex -0.16343820190429686 0.07235147857666016 -0.8300000000000001
vertex -0.16453009033203125 0.08255618286132813 -0.8300000000000001
endloop
endfacet
facet normal 0 0 -1
outer loop
vertex 0.16447181701660157 0.08180821228027343 -0.8300000000000001
vertex -0.16453009033203125 0.08255618286132813 -0.8300000000000001
vertex 0.16497378540039062 0.09205888366699219 -0.8300000000000001
endloop
endfacet
facet normal 0 0 -1
outer loop
vertex 0.16497378540039062 0.09205888366699219 -0.8300000000000001
vertex -0.16453009033203125 0.08255618286132813 -0.8300000000000001
vertex -0.16498545837402345 0.09280902862548829 -0.8300000000000001
endloop
endfacet
facet normal 0 0 -1
outer loop
vertex 0.16497378540039062 0.09205888366699219 -0.8300000000000001
vertex -0.16498545837402345 0.09280902862548829 -0.8300000000000001
vertex 0.16483750915527345 0.10232093811035156 -0.8300000000000001
endloop
endfacet
facet normal 0 0 -1
outer loop
vertex 0.16483750915527345 0.10232093811035156 -0.8300000000000001
vertex -0.16498545837402345 0.09280902862548829 -0.8300000000000001
vertex -0.16480252075195312 0.10307035064697266 -0.8300000000000001
endloop
endfacet
facet normal 0 0 -1
outer loop
vertex 0.16483750915527345 0.10232093811035156 -0.8300000000000001
vertex -0.16480252075195312 0.10307035064697266 -0.8300000000000001
vertex 0.16406350708007814 0.1125546646118164 -0.8300000000000001
endloop
endfacet
facet normal 0 0 -1
outer loop
vertex 0.16406350708007814 0.1125546646118164 -0.8300000000000001
vertex -0.16480252075195312 0.10307035064697266 -0.8300000000000001
vertex -0.16398199462890625 0.11330045318603515 -0.8300000000000001
endloop
endfacet
facet normal 0 0 -1
outer loop
vertex 0.16406350708007814 0.1125546646118164 -0.8300000000000001
vertex -0.16398199462890625 0.11330045318603515 -0.8300000000000001
vertex 0.16265476989746094 0.12272047424316407 -0.8300000000000001
endloop
endfacet
facet normal 0 0 -1
outer loop
vertex 0.16265476989746094 0.12272047424316407 -0.8300000000000001
vertex -0.16398199462890625 0.11330045318603515 -0.8300000000000001
vertex -0.1625270538330078 0.12345975494384766 -0.8300000000000001
endloop
endfacet
facet normal 0 0 -1
outer loop
vertex 0.16265476989746094 0.12272047424316407 -0.8300000000000001
vertex -0.1625270538330078 0.12345975494384766 -0.8300000000000001
vertex 0.16061676025390625 0.13277903747558595 -0.8300000000000001
endloop
endfacet
facet normal 0 0 -1
outer loop
vertex 0.16061676025390625 0.13277903747558595 -0.8300000000000001
vertex -0.1625270538330078 0.12345975494384766 -0.8300000000000001
vertex -0.16044332885742188 0.1335089569091797 -0.8300000000000001
endloop
endfacet
facet normal 0 0 -1
outer loop
vertex 0.16061676025390625 0.13277903747558595 -0.8300000000000001
vertex -0.16044332885742188 0.1335089569091797 -0.8300000000000001
vertex 0.1579573516845703 0.14269143676757812 -0.8300000000000001
endloop
endfacet
facet normal 0 0 -1
outer loop
vertex 0.1579573516845703 0.14269143676757812 -0.8300000000000001
vertex -0.16044332885742188 0.1335089569091797 -0.8300000000000001
vertex -0.15773887634277345 0.14340916442871093 -0.8300000000000001
endloop
endfacet
facet normal 0 0 -1
outer loop
vertex 0.1579573516845703 0.14269143676757812 -0.8300000000000001
vertex -0.15773887634277345 0.14340916442871093 -0.8300000000000001
vertex 0.15468684387207032 0.15241934204101562 -0.8300000000000001
endloop
endfacet
facet normal 0 0 -1
outer loop
vertex 0.15468684387207032 0.15241934204101562 -0.8300000000000001
vertex -0.15773887634277345 0.14340916442871093 -0.8300000000000001
vertex -0.15442416381835938 0.15312208557128906 -0.8300000000000001
endloop
endfacet
facet normal 0 0 -1
outer loop
vertex 0.15468684387207032 0.15241934204101562 -0.8300000000000001
vertex -0.15442416381835938 0.15312208557128906 -0.8300000000000001
vertex 0.15081787109375 0.1619250946044922 -0.8300000000000001
endloop
endfacet
facet normal 0 0 -1
outer loop
vertex 0.15081787109375 0.1619250946044922 -0.8300000000000001
vertex -0.15442416381835938 0.15312208557128906 -0.8300000000000001
vertex -0.15051202392578125 0.16261015319824218 -0.8300000000000001
endloop
endfacet
facet normal 0 0 -1
outer loop
vertex 0.15081787109375 0.1619250946044922 -0.8300000000000001
vertex -0.15051202392578125 0.16261015319824218 -0.8300000000000001
vertex 0.14636541748046875 0.1711719207763672 -0.8300000000000001
endloop
endfacet
facet normal 0 0 -1
outer loop
vertex 0.14636541748046875 0.1711719207763672 -0.8300000000000001
vertex -0.15051202392578125 0.16261015319824218 -0.8300000000000001
vertex -0.14601756286621095 0.1718366394042969 -0.8300000000000001
endloop
endfacet
facet normal 0 0 -1
outer loop
vertex 0.14636541748046875 0.1711719207763672 -0.8300000000000001
vertex -0.14601756286621095 0.1718366394042969 -0.8300000000000001
vertex 0.14134671020507814 0.1801240692138672 -0.8300000000000001
endloop
endfacet
facet normal 0 0 -1
outer loop
vertex 0.14134671020507814 0.1801240692138672 -0.8300000000000001
vertex -0.14601756286621095 0.1718366394042969 -0.8300000000000001
vertex -0.1409582061767578 0.180765869140625 -0.8300000000000001
endloop
endfacet
facet normal 0 0 -1
outer loop
vertex 0.14134671020507814 0.1801240692138672 -0.8300000000000001
vertex -0.1409582061767578 0.180765869140625 -0.8300000000000001
vertex 0.13578115844726563 0.1887468719482422 -0.8300000000000001
endloop
endfacet
facet normal 0 0 -1
outer loop
vertex 0.13578115844726563 0.1887468719482422 -0.8300000000000001
vertex -0.1409582061767578 0.180765869140625 -0.8300000000000001
vertex -0.13535350036621094 0.18936328125000002 -0.8300000000000001
endloop
endfacet
facet normal 0 0 -1
outer loop
vertex 0.13578115844726563 0.1887468719482422 -0.8300000000000001
vertex -0.13535350036621094 0.18936328125000002 -0.8300000000000001
vertex 0.12969029235839843 0.19700698852539064 -0.8300000000000001
endloop
endfacet
facet normal 0 0 -1
outer loop
vertex 0.12969029235839843 0.19700698852539064 -0.8300000000000001
vertex -0.13535350036621094 0.18936328125000002 -0.8300000000000001
vertex -0.12922514343261718 0.1975956268310547 -0.8300000000000001
endloop
endfacet
facet normal 0 0 -1
outer loop
vertex 0.12969029235839843 0.19700698852539064 -0.8300000000000001
vertex -0.12922514343261718 0.1975956268310547 -0.8300000000000001
vertex 0.12309768676757812 0.20487246704101564 -0.8300000000000001
endloop
endfacet
facet normal 0 0 -1
outer loop
vertex 0.12309768676757812 0.20487246704101564 -0.8300000000000001
vertex -0.12922514343261718 0.1975956268310547 -0.8300000000000001
vertex -0.12259683990478516 0.20543104553222657 -0.8300000000000001
endloop
endfacet
facet normal 0 0 -1
outer loop
vertex 0.12309768676757812 0.20487246704101564 -0.8300000000000001
vertex -0.12259683990478516 0.20543104553222657 -0.8300000000000001
vertex 0.1160288314819336 0.2123128662109375 -0.8300000000000001
endloop
endfacet
facet normal 0 0 -1
outer loop
vertex 0.1160288314819336 0.2123128662109375 -0.8300000000000001
vertex -0.12259683990478516 0.20543104553222657 -0.8300000000000001
vertex -0.11549422454833985 0.2128392333984375 -0.8300000000000001
endloop
endfacet
facet normal 0 0 -1
outer loop
vertex 0.1160288314819336 0.2123128662109375 -0.8300000000000001
vertex -0.11549422454833985 0.2128392333984375 -0.8300000000000001
vertex 0.1085110855102539 0.21929940795898437 -0.8300000000000001
endloop
endfacet
facet normal 0 0 -1
outer loop
vertex 0.1085110855102539 0.21929940795898437 -0.8300000000000001
vertex -0.11549422454833985 0.2128392333984375 -0.8300000000000001
vertex -0.10794479370117188 0.21979151916503906 -0.8300000000000001
endloop
endfacet
facet normal 0 0 -1
outer loop
vertex 0.1085110855102539 0.21929940795898437 -0.8300000000000001
vertex -0.10794479370117188 0.21979151916503906 -0.8300000000000001
vertex 0.10057353210449219 0.22580506896972657 -0.8300000000000001
endloop
endfacet
facet normal 0 0 -1
outer loop
vertex 0.10057353210449219 0.22580506896972657 -0.8300000000000001
vertex -0.10794479370117188 0.21979151916503906 -0.8300000000000001
vertex -0.09997773742675782 0.22626100158691406 -0.8300000000000001
endloop
endfacet
facet normal 0 0 -1
outer loop
vertex 0.10057353210449219 0.22580506896972657 -0.8300000000000001
vertex -0.09997773742675782 0.22626100158691406 -0.8300000000000001
vertex 0.09224687957763672 0.2318046569824219 -0.8300000000000001
endloop
endfacet
facet normal 0 0 -1
outer loop
vertex 0.09224687957763672 0.2318046569824219 -0.8300000000000001
vertex -0.09997773742675782 0.22626100158691406 -0.8300000000000001
vertex -0.09162389373779298 0.23222267150878906 -0.8300000000000001
endloop
endfacet
facet normal 0 0 -1
outer loop
vertex 0.09224687957763672 0.2318046569824219 -0.8300000000000001
vertex -0.09162389373779298 0.23222267150878906 -0.8300000000000001
vertex 0.08356333923339844 0.2372749786376953 -0.8300000000000001
endloop
endfacet
facet normal 0 0 -1
outer loop
vertex 0.08356333923339844 0.2372749786376953 -0.8300000000000001
vertex -0.09162389373779298 0.23222267150878906 -0.8300000000000001
vertex -0.08291557312011719 0.23765345764160156 -0.8300000000000001
endloop
endfacet
facet normal 0 0 -1
outer loop
vertex 0.08356333923339844 0.2372749786376953 -0.8300000000000001
vertex -0.08291557312011719 0.23765345764160156 -0.8300000000000001
vertex 0.07455651092529297 0.24219485473632812 -0.8300000000000001
endloop
endfacet
facet normal 0 0 -1
outer loop
vertex 0.07455651092529297 0.24219485473632812 -0.8300000000000001
vertex -0.08291557312011719 0.23765345764160156 -0.8300000000000001
vertex -0.07388646697998047 0.24253233337402344 -0.8300000000000001
endloop
endfacet
facet normal 0 0 -1
outer loop
vertex 0.07455651092529297 0.24219485473632812 -0.8300000000000001
vertex -0.07388646697998047 0.24253233337402344 -0.8300000000000001
vertex 0.06526123809814453 0.24654527282714844 -0.8300000000000001
endloop
endfacet
facet normal 0 0 -1
outer loop
vertex 0.06526123809814453 0.24654527282714844 -0.8300000000000001
vertex -0.07388646697998047 0.24253233337402344 -0.8300000000000001
vertex -0.0645715103149414 0.24684043884277343 -0.8300000000000001
endloop
endfacet
facet normal 0 0 -1
outer loop
vertex 0.06526123809814453 0.24654527282714844 -0.8300000000000001
vertex -0.0645715103149414 0.24684043884277343 -0.8300000000000001
vertex 0.05571348571777344 0.2503093872070313 -0.8300000000000001
endloop
endfacet
facet normal 0 0 -1
outer loop
vertex 0.05571348571777344 0.2503093872070313 -0.8300000000000001
vertex -0.0645715103149414 0.24684043884277343 -0.8300000000000001
vertex -0.05500673675537109 0.25056111145019533 -0.8300000000000001
endloop
endfacet
facet normal 0 0 -1
outer loop
vertex 0.05571348571777344 0.2503093872070313 -0.8300000000000001
vertex -0.05500673675537109 0.25056111145019533 -0.8300000000000001
vertex 0.045950183868408205 0.25347265625 -0.8300000000000001
endloop
endfacet
facet normal 0 0 -1
outer loop
vertex 0.045950183868408205 0.25347265625 -0.8300000000000001
vertex -0.05500673675537109 0.25056111145019533 -0.8300000000000001
vertex -0.04522915267944336 0.2536799468994141 -0.8300000000000001
endloop
endfacet
facet normal 0 0 -1
outer loop
vertex 0.045950183868408205 0.25347265625 -0.8300000000000001
vertex -0.04522915267944336 0.2536799468994141 -0.8300000000000001
vertex 0.03600910949707031 0.25602279663085936 -0.8300000000000001
endloop
endfacet
facet normal 0 0 -1
outer loop
vertex 0.03600910949707031 0.25602279663085936 -0.8300000000000001
vertex -0.04522915267944336 0.2536799468994141 -0.8300000000000001
vertex -0.03527658843994141 0.2561848754882813 -0.8300000000000001
endloop
endfacet
facet normal 0 0 -1
outer loop
vertex 0.03600910949707031 0.25602279663085936 -0.8300000000000001
vertex -0.03527658843994141 0.2561848754882813 -0.8300000000000001
vertex 0.02592872428894043 0.25794998168945316 -0.8300000000000001
endloop
endfacet
facet normal 0 0 -1
outer loop
vertex 0.02592872428894043 0.25794998168945316 -0.8300000000000001
vertex -0.03527658843994141 0.2561848754882813 -0.8300000000000001
vertex -0.025187543869018555 0.25806619262695313 -0.8300000000000001
endloop
endfacet
facet normal 0 0 -1
outer loop
vertex 0.02592872428894043 0.25794998168945316 -0.8300000000000001
vertex -0.025187543869018555 0.25806619262695313 -0.8300000000000001
vertex 0.015748024940490723 0.25924676513671874 -0.8300000000000001
endloop
endfacet
facet normal 0 0 -1
outer loop
vertex 0.015748024940490723 0.25924676513671874 -0.8300000000000001
vertex -0.025187543869018555 0.25806619262695313 -0.8300000000000001
vertex -0.01500105381011963 0.25931668090820315 -0.8300000000000001
endloop
endfacet
facet normal 0 0 -1
outer loop
vertex 0.015748024940490723 0.25924676513671874 -0.8300000000000001
vertex -0.01500105381011963 0.25931668090820315 -0.8300000000000001
vertex 0.0055064005851745606 0.2599080810546875 -0.8300000000000001
endloop
endfacet
facet normal 0 0 -1
outer loop
vertex 0.0055064005851745606 0.2599080810546875 -0.8300000000000001
vertex -0.01500105381011963 0.25931668090820315 -0.8300000000000001
vertex -0.004756527423858643 0.25993142700195315 -0.8300000000000001
endloop
endfacet
facet normal 0 0 -1
outer loop
vertex -0.050856433868408206 -0.06196694946289063 -0.8300000000000001
vertex 0.050142200469970706 -0.062196563720703125 -0.8300000000000001
vertex -0.04099947738647461 -0.06482503509521484 -0.8300000000000001
endloop
endfacet
facet normal 0 0 -1
outer loop
vertex -0.04099947738647461 -0.06482503509521484 -0.8300000000000001
vertex 0.050142200469970706 -0.062196563720703125 -0.8300000000000001
vertex 0.0402723503112793 -0.06500980377197266 -0.8300000000000001
endloop
endfacet
facet normal 0 0 -1
outer loop
vertex -0.04099947738647461 -0.06482503509521484 -0.8300000000000001
vertex 0.0402723503112793 -0.06500980377197266 -0.8300000000000001
vertex -0.030983903884887695 -0.06706479644775391 -0.8300000000000001
endloop
endfacet
facet normal 0 0 -1
outer loop
vertex -0.030983903884887695 -0.06706479644775391 -0.8300000000000001
vertex 0.0402723503112793 -0.06500980377197266 -0.8300000000000001
vertex 0.030246696472167968 -0.0672040023803711 -0.8300000000000001
endloop
endfacet
facet normal 0 0 -1
outer loop
vertex -0.030983903884887695 -0.06706479644775391 -0.8300000000000001
vertex 0.030246696472167968 -0.0672040023803711 -0.8300000000000001
vertex -0.020848459243774414 -0.06867755126953125 -0.8300000000000001
endloop
endfacet
facet normal 0 0 -1
outer loop
vertex -0.020848459243774414 -0.06867755126953125 -0.8300000000000001
vertex 0.030246696472167968 -0.0672040023803711 -0.8300000000000001
vertex 0.02010402297973633 -0.06877066040039062 -0.8300000000000001
endloop
endfacet
facet normal 0 0 -1
outer loop
vertex -0.020848459243774414 -0.06867755126953125 -0.8300000000000001
vertex 0.02010402297973633 -0.06877066040039062 -0.8300000000000001
vertex -0.010632355690002442 -0.06965707397460938 -0.8300000000000001
endloop
endfacet
facet normal 0 0 -1
outer loop
vertex -0.010632355690002442 -0.06965707397460938 -0.8300000000000001
vertex 0.02010402297973633 -0.06877066040039062 -0.8300000000000001
vertex 0.009883571624755859 -0.06970372009277344 -0.8300000000000001
endloop
endfacet
facet normal 0 0 -1
outer loop
vertex -0.010632355690002442 -0.06965707397460938 -0.8300000000000001
vertex 0.009883571624755859 -0.06970372009277344 -0.8300000000000001
vertex -0.00037511786818504334 -0.06999957275390625 -0.8300000000000001
endloop
endfacet
endsolid side
